<svg width="52" height="51" fill="none" xmlns="http://www.w3.org/2000/svg"><g clip-path="url(#a)" fill="#487BDE" fill-opacity=".2"><path d="M42.131 48.665c-1.292-.286-2.33.202-3.268 1.04-.365.3-.746.58-1.142.837-.832.593-1.448.607-2.268.01-.768-.55-1.521-1.12-2.299-1.652a1.338 1.338 0 0 0-.69-.225c-.944-.025-1.89 0-2.835-.012-1.013-.013-1.503-.371-1.823-1.345-.288-.863-.545-1.736-.86-2.586a1.756 1.756 0 0 0-.541-.735c-.73-.573-1.497-1.096-2.242-1.649-.745-.553-.94-1.158-.662-2.037.293-.931.607-1.853.895-2.788.063-.22.063-.454 0-.675-.278-.917-.591-1.822-.885-2.74-.294-.917-.095-1.53.699-2.114.678-.5 1.346-1.012 2.05-1.476.396-.256.679-.654.79-1.112.238-.824.52-1.636.794-2.448.29-.86.794-1.227 1.691-1.235.946 0 1.892.02 2.836-.015.31-.018.61-.117.868-.29.758-.505 1.479-1.06 2.228-1.593.822-.593 1.438-.591 2.266 0 .753.543 1.49 1.106 2.258 1.62.233.152.502.239.78.251.96.03 1.921 0 2.883.014.863 0 1.383.381 1.665 1.215.304.893.563 1.8.89 2.684.12.303.316.57.57.775.656.529 1.355 1.013 2.035 1.499.998.729 1.163 1.243.776 2.43-.274.832-.557 1.662-.81 2.5a1.382 1.382 0 0 0 0 .728c.271.92.585 1.822.874 2.742.29.92.09 1.515-.674 2.075-.763.561-1.513 1.074-2.24 1.649-.24.196-.424.451-.534.741-.314.853-.565 1.727-.853 2.592-.308.934-.81 1.296-1.798 1.314-.478.017-.95.01-1.424.01Zm-8.582-5.766 9.633-9.629-2.18-2.167-9.63 9.63 2.177 2.166Zm6.355-3.315a1.588 1.588 0 0 0-1.62 1.58 1.62 1.62 0 0 0 1.62 1.644 1.648 1.648 0 0 0 1.62-1.62 1.62 1.62 0 0 0-1.62-1.604Zm-8.222-6.417a1.597 1.597 0 0 0 2.715 1.176 1.607 1.607 0 0 0-1.101-2.76 1.58 1.58 0 0 0-1.622 1.584h.008Z"/><path d="M4.686 9.435c.81-1.762 2.106-2.69 3.886-3.028A15572.96 15572.96 0 0 0 31.21 2.082c3.492-.666 6.98-1.34 10.476-1.993a4.824 4.824 0 0 1 5.71 3.888c1.132 5.84 2.25 11.68 3.356 17.523.308 1.606.608 3.212.922 4.816.354 1.802-.347 3.22-1.59 4.492-.76-.551-1.499-1.078-2.228-1.62a.888.888 0 0 1-.243-.424c-.275-.81-.474-1.66-.826-2.43a6.005 6.005 0 0 0-1.091-1.535.951.951 0 0 1-.324-.735c.008-3.155.008-6.31 0-9.465 0-3.11-2.056-5.164-5.168-5.164H4.686Z"/><path d="M43.752 19.129H.084c-.018-.019-.059-.043-.059-.07 0-1.686-.06-3.375 0-5.062.067-1.602 1.468-2.88 3.072-2.944h37.059c2.3 0 3.595 1.3 3.595 3.612v4.464ZM22.913 43.456H3.57c-2.227 0-3.56-1.323-3.56-3.55V27.284h26.018c-.182.569-.348 1.134-.55 1.683a.937.937 0 0 1-.345.352c-.662.492-1.337.97-2 1.462a3.203 3.203 0 0 0-1.204 3.675c.223.723.442 1.452.707 2.16.15.374.146.793-.01 1.166-.203.55-.344 1.128-.553 1.678-.555 1.462-.395 2.769.84 3.996ZM4.89 35.317h9.654v-3.175h-9.65l-.004 3.175Z"/></g><defs><clipPath id="a"><path fill="#fff" d="M0 0h51.759v50.989H0z"/></clipPath></defs></svg>