<svg width="59" height="59" fill="none" xmlns="http://www.w3.org/2000/svg"><g clip-path="url(#a)" fill="#487BDE" fill-opacity=".2"><path d="M25.693 27.378v-2.63c0-1.733-.785-2.518-2.518-2.518h-3.662c-1.665 0-2.468.794-2.468 2.44v14.474c-.21.014-.392.037-.572.04h-4.98c-2.746-.017-4.633-1.9-4.635-4.646V17.553c-.71.506-1.311.96-1.934 1.373a3.107 3.107 0 0 1-4.87-2.019c-.228-1.33.296-2.378 1.374-3.163a4506.32 4506.32 0 0 0 8.839-6.421l8.976-6.52c1.476-1.071 2.746-1.087 4.196-.027C29.39 5.098 35.342 9.423 41.294 13.75c1.204.874 1.678 2.152 1.314 3.447A3.104 3.104 0 0 1 37.897 19c-.648-.422-1.264-.898-2.008-1.431v5.42c-3.992.076-7.325 1.532-10.196 4.389Z"/><path d="m46.136 43.952 3.582 3.855c1.023-.646 1.337-.616 2.159.178 2.054 1.992 4.106 3.985 6.155 5.98.77.748.774 1.274.03 2.041-.687.699-1.35 1.401-2.03 2.095-.68.694-1.23.687-1.921.02a3263.078 3263.078 0 0 1-6.243-6.052c-.787-.765-.833-1.106-.366-1.889l-3.548-3.8c-2.987 2.393-6.302 3.39-10.036 2.775a11.904 11.904 0 0 1-7.554-4.441 12.26 12.26 0 0 1 16.5-17.77c4.982 3.371 7.406 10.932 3.272 17.008ZM35.941 28.28a8.803 8.803 0 1 0-.004 17.606 8.803 8.803 0 0 0 .004-17.606Z"/></g><defs><clipPath id="a"><path fill="#fff" d="M0 0h58.616v58.623H0z"/></clipPath></defs></svg>