<svg width="49" height="57" fill="none" xmlns="http://www.w3.org/2000/svg"><g clip-path="url(#a)"><path d="M.002 20.523v-6.476c0-1.637.74-2.434 2.398-2.466 3.273-.042 6.46-.545 9.514-1.759a21.832 21.832 0 0 0 10.664-8.786C23.453-.346 24.936-.36 25.806 1c3.636 5.674 8.88 8.94 15.442 10.114 1.549.278 3.14.335 4.716.426 1.685.101 2.435.83 2.432 2.5 0 4.091.07 8.181-.03 12.27-.187 7.894-3.152 14.692-8.492 20.474-3.774 4.08-8.264 7.178-13.303 9.5a5.285 5.285 0 0 1-4.593.056c-6.347-2.91-11.803-6.963-15.977-12.62A30.037 30.037 0 0 1 .027 26.06c-.034-1.85 0-3.7 0-5.55l-.025.012Zm16.9 14.26c-.274 2.387 1.536 4.499 5.224 6.08v3.313h4.194v-3.207c.959-.51 1.889-.883 2.678-1.45 3.377-2.425 3.417-6.907.124-9.44a7.975 7.975 0 0 0-4.88-1.626 3.947 3.947 0 0 1-2.466-.804c-.962-.762-.955-1.826 0-2.613 1.59-1.324 5.076-1.045 5.673 1.258h4.152c-.311-3.327-2.336-5.066-5.316-6.043v-3.355h-4.183c0 1.01-.013 1.989 0 2.96 0 .321-.111.444-.405.565-.73.267-1.432.604-2.097 1.007-3.409 2.286-3.715 6.66-.666 9.311a7.669 7.669 0 0 0 4.973 1.87c.942.027 1.84.168 2.622.74 1.093.804 1.09 1.932.015 2.763-1.554 1.201-4.958.987-5.595-1.352l-4.047.022Z" fill="#487BDE" fill-opacity=".2"/></g><defs><clipPath id="a"><path fill="#fff" d="M0 0h48.419v56.85H0z"/></clipPath></defs></svg>