<svg width="41" height="40" fill="none" xmlns="http://www.w3.org/2000/svg"><g clip-path="url(#a)" fill="#8C7C53" fill-opacity=".5"><path d="M32.794 11.782a7.097 7.097 0 0 1 4.514 1.528 7.008 7.008 0 0 1 2.44 7.375c-.767 2.706-3.157 4.769-5.922 5.097a10.08 10.08 0 0 1-1.129.069h-6.834v-5.675c0-2.205-1.498-3.697-3.704-3.7h-4.375c-2.122 0-3.633 1.522-3.637 3.648v5.694a2.73 2.73 0 0 1-.305.031c-1.51 0-3.02.014-4.531 0a9.451 9.451 0 0 1-9.298-9.88c.225-4.496 3.878-8.34 8.365-8.797.295-.049.595-.067.894-.057.395.041.537-.106.667-.48 1.198-3.49 3.575-5.75 7.212-6.463 4.063-.8 8.058 1.25 9.958 4.96.287.563.468 1.183.717 1.766a.626.626 0 0 0 .34.34c2.392.573 3.93 2.03 4.575 4.407.016.046.033.092.053.137Z"/><path d="M23.52 30.54h2.209c.53 0 .945.182 1.183.667.237.484.106.954-.24 1.37-1.888 2.291-3.776 4.58-5.663 6.865-.617.747-1.394.747-2.006 0-1.89-2.291-3.778-4.58-5.666-6.865-.345-.416-.492-.86-.247-1.367.246-.508.675-.685 1.217-.675.713.01 1.425 0 2.178 0V20.204c0-.938.444-1.386 1.383-1.386h4.256c.946 0 1.393.442 1.393 1.378v9.843l.003.5Z"/></g><defs><clipPath id="a"><path fill="#fff" d="M0 0h40.002v40H0z"/></clipPath></defs></svg>