<svg width="39" height="39" fill="none" xmlns="http://www.w3.org/2000/svg"><g clip-path="url(#a)" fill="#8C7C53" fill-opacity=".5"><path d="M33.22 19.925c.06 1.192-.55 2.022-1.542 2.5-1.064.512-1.648 1.262-1.926 2.406-.345 1.422-1.353 2.148-2.819 2.131-1.044-.01-1.792.39-2.46 1.186-1.183 1.393-2.063 1.42-3.442.905a.785.785 0 0 1-.115-.044c-.96-.556-1.879-.453-2.882-.014-1.476.656-2.474.402-3.52-.875-.64-.782-1.373-1.17-2.39-1.158-1.516.02-2.532-.75-2.878-2.224-.251-1.071-.799-1.781-1.804-2.256-1.328-.632-1.867-1.745-1.55-3.176.242-1.087.037-1.968-.655-2.855-.984-1.264-.97-2.315 0-3.592.656-.872.82-1.723.62-2.787-.272-1.476.028-2.366 1.392-3.096 1.087-.58 1.723-1.333 2.016-2.534.328-1.353 1.355-2.073 2.753-2.052a2.878 2.878 0 0 0 2.523-1.216c.937-1.217 2.2-1.497 3.575-.82.962.479 1.831.454 2.807.012 1.459-.656 2.507-.412 3.531.839a2.998 2.998 0 0 0 2.46 1.189c1.596.033 2.364.667 2.84 2.169.05.156.096.313.13.472a2.295 2.295 0 0 0 1.312 1.63c.294.142.577.307.846.492.967.677 1.267 1.63 1.102 2.762a5.264 5.264 0 0 1-.095.48 2.379 2.379 0 0 0 .524 2.219c.053.062.107.125.154.192.955 1.35 1.015 2.389 0 3.708-.645.845-.878 1.694-.593 2.707.047.231.076.465.085.7ZM19.512 4.185A10.493 10.493 0 0 0 9 14.64c-.013 5.79 4.673 10.525 10.433 10.525a10.492 10.492 0 1 0 .079-20.986v.008Z"/><path d="M23.858 30.356c.58-.52 1.168-.969 1.654-1.51.401-.449.843-.606 1.418-.656a6.751 6.751 0 0 0 1.789-.355c1.326-.482 1.967-1.578 2.34-2.86.129-.44.193-.91.703-1.126.19-.08.303-.097.459.06 2.16 2.165 4.324 4.326 6.49 6.483.214.212.361.451.255.768-.107.316-.358.449-.682.501-1.533.251-3.064.523-4.6.763-.29.046-.373.177-.414.438a199.58 199.58 0 0 1-.77 4.59c-.043.23-.25.538-.448.602a.864.864 0 0 1-.721-.216c-2.5-2.481-4.98-4.983-7.464-7.48-.018-.005-.028-.033-.01-.002Zm-8.746.054c-.492.492-1.005 1.014-1.526 1.533-1.925 1.92-3.852 3.838-5.78 5.752-.126.142-.28.258-.452.34-.438.163-.784-.061-.873-.576-.178-1.035-.344-2.073-.514-3.115-.087-.525-.182-1.05-.256-1.576a.392.392 0 0 0-.389-.377 473.984 473.984 0 0 1-4.563-.75c-.327-.052-.618-.144-.728-.501-.11-.357.08-.567.302-.789 2.102-2.088 4.203-4.179 6.303-6.27.357-.357.828-.267 1.036.216.1.253.184.512.249.777.546 2.005 1.995 3.166 4.073 3.197a1.896 1.896 0 0 1 1.516.698c.463.522 1.043.95 1.602 1.441Zm4.373-24.913a9.182 9.182 0 0 1 9.19 9.244c-.014 5.004-4.154 9.13-9.151 9.118a9.184 9.184 0 0 1-9.201-9.162 9.181 9.181 0 0 1 9.162-9.201v.001Zm-3.28 13.333c-.02.656.451.961 1 .694.656-.328 1.312-.656 1.968-1.012a.572.572 0 0 1 .636 0c.605.343 1.23.656 1.843.984.292.164.58.254.879.03.298-.225.27-.54.215-.858-.123-.698-.261-1.395-.353-2.097a.726.726 0 0 1 .179-.526c.492-.515 1.006-1 1.518-1.494.228-.22.403-.459.284-.793-.12-.335-.405-.412-.717-.455-.675-.092-1.35-.198-2.026-.28a.637.637 0 0 1-.576-.416c-.28-.637-.605-1.253-.903-1.881-.131-.277-.307-.492-.64-.492-.332 0-.537.205-.677.492-.308.638-.637 1.266-.934 1.91a.571.571 0 0 1-.513.376c-.704.083-1.412.163-2.104.31a1.13 1.13 0 0 0-.664.447c-.175.282.008.566.244.792.525.492 1.05.997 1.548 1.521a.73.73 0 0 1 .164.525c-.102.764-.248 1.528-.36 2.223h-.01Z"/><path d="M17.735 17.794c.085-.53.131-.976.235-1.407a.91.91 0 0 0-.304-.95c-.328-.307-.618-.645-.956-1.002.492-.08.96-.164 1.438-.227a.81.81 0 0 0 .682-.506c.197-.418.409-.83.656-1.336.208.364.395.74.563 1.124.191.518.55.735 1.08.774.379.026.753.105 1.148.164-.336.357-.636.702-.966 1.017a.905.905 0 0 0-.297.95c.104.432.148.878.231 1.396-.491-.258-.918-.47-1.334-.697a.821.821 0 0 0-.853 0c-.406.23-.828.441-1.323.7Z"/></g><defs><clipPath id="a"><path fill="#fff" d="M0 0h39v38.085H0z"/></clipPath></defs></svg>