<svg width="25" height="25" fill="none" xmlns="http://www.w3.org/2000/svg"><circle cx="12.056" cy="12.056" r="11.706" stroke="#212225" stroke-width=".7"/><g clip-path="url(#a)" fill="#212225"><path d="M17.983 12.458c0 .825.041 1.654-.01 2.476-.071 1.133-.54 2.058-1.604 2.59a3.69 3.69 0 0 1-1.652.371c-1.477.01-2.954.01-4.43 0a3.77 3.77 0 0 1-1.556-.325c-1.002-.457-1.508-1.278-1.672-2.336a5.05 5.05 0 0 1-.052-.763c-.005-1.377-.015-2.755.006-4.135.003-.41.061-.818.173-1.212.357-1.212 1.216-1.854 2.429-2.058.293-.048.588-.072.885-.072a467.52 467.52 0 0 1 4.163 0c.494-.004.983.083 1.445.258 1.104.428 1.666 1.284 1.838 2.424.034.253.051.508.05.763.008.671 0 1.343 0 2.014l-.013.005Zm-5.486 4.41v.019h.374c.74-.016 1.484-.005 2.222-.058.84-.062 1.457-.49 1.732-1.309.102-.315.155-.645.156-.976.017-1.36.009-2.72.005-4.08 0-.201-.012-.403-.035-.603-.108-.895-.67-1.535-1.544-1.738a3.575 3.575 0 0 0-.74-.087 112.29 112.29 0 0 0-2.596-.02c-.723.005-1.449 0-2.169.057-.832.064-1.445.486-1.72 1.299a3.19 3.19 0 0 0-.16.958c-.017 1.372-.008 2.744-.005 4.115-.003.196.01.392.037.586.127.792.495 1.416 1.297 1.673.316.097.645.15.976.157.723.023 1.447.007 2.17.007Z"/><path d="M9.61 12.436a2.893 2.893 0 1 1 1.773 2.688 2.885 2.885 0 0 1-1.774-2.688Zm4.76.019a1.868 1.868 0 1 0-3.736-.003 1.868 1.868 0 0 0 3.735.003Zm1.044-2.311a.576.576 0 1 1 0-1.152.576.576 0 0 1 0 1.152Z"/></g><defs><clipPath id="a"><path fill="#fff" transform="translate(7 7)" d="M0 0h11v10.904H0z"/></clipPath></defs></svg>