<svg width="233" height="78" fill="none" xmlns="http://www.w3.org/2000/svg"><g clip-path="url(#a)"><path d="m37.226 4.85-16.78 38.269-9.96-28.571L0 18.348l19.402 54.26L50.856 0l-13.63 4.85ZM4.98 20.576l3.277-1.705 11.795 34.34L39.71 7.993l4.719-1.572-24.376 55.962L4.98 20.577Z" fill="url(#b)"/><path d="m13.636 13.63 7.408 20.773L32.867 6.422 13.636 13.63Zm4.587 2.36 7.864-3.147-4.85 11.272-3.014-8.126Z" fill="url(#c)"/><path d="m20.838 77.85 4.85-1.703L56.224 5.504 51.375 7.6 20.839 77.85Z" fill="url(#d)"/><path d="m56.53 12.843 4.938-1.442L36.52 68.48l-4.804 1.768L56.53 12.843Z" fill="url(#e)"/><path d="M72.378 27.16c-.613-1.418-1.188-2.39-1.726-2.917-.538-.526-1.31-.838-2.315-.936v-.734c.124 0 .3-.012.533-.037.237-.024.476-.037.715-.037a7.172 7.172 0 0 1 3.528.936c1.126.625 2.081 1.867 2.866 3.726l6.277 14.794 2.166-5.03c1.029-2.373 2.999-7.06 5.91-14.059h1.764L81.56 47.461h-.66l-8.521-20.3Zm26.78 18.98c-1.725-1.125-3.053-2.668-3.983-4.63-.93-1.962-1.396-4.139-1.398-6.53 0-2.397.465-4.575 1.395-6.533.93-1.959 2.257-3.502 3.982-4.63 1.726-1.126 3.727-1.69 6.003-1.69 2.276 0 4.276.564 6.001 1.69 1.725 1.126 3.053 2.669 3.983 4.63.93 1.96 1.395 4.138 1.395 6.533 0 2.4-.465 4.577-1.395 6.535-.93 1.958-2.258 3.501-3.983 4.63-1.725 1.125-3.726 1.688-6.001 1.689-2.275 0-4.275-.564-6-1.694Zm10.132-1.174c1.161-.93 2.048-2.246 2.661-3.947.612-1.7.918-3.713.918-6.039 0-2.325-.306-4.338-.918-6.038-.613-1.7-1.5-3.016-2.661-3.946-1.164-.93-2.54-1.395-4.13-1.395-1.589 0-2.966.465-4.13 1.395-1.162.93-2.05 2.246-2.662 3.946-.612 1.7-.917 3.712-.917 6.038s.306 4.34.917 6.04c.612 1.699 1.499 3.014 2.662 3.946 1.161.93 2.538 1.395 4.13 1.394 1.592 0 2.968-.465 4.13-1.393v-.001Zm25.328 1.339c-.967-.77-2.037-2.16-3.212-4.166l-3.671-6.24h-2.57v11.195h-3.307V27.271c0-1.25-.171-2.173-.514-2.771-.342-.598-1.027-.898-2.056-.9h-.734v-.734h9.544c2.325 0 4.436.46 6.332 1.377 1.897.918 2.846 2.662 2.846 5.23 0 3.256-1.958 5.337-5.874 6.241l3.859 6.425c.905 1.517 1.718 2.576 2.44 3.175.713.596 1.59.96 2.515 1.046v.734a4.259 4.259 0 0 1-.936.257 7.015 7.015 0 0 1-1.267.11 5.278 5.278 0 0 1-3.395-1.156Zm-4.222-12.242a5.6 5.6 0 0 0 2.276-1.725c.624-.784.936-1.74.936-2.866 0-1.2-.312-2.196-.936-2.992a5.692 5.692 0 0 0-2.276-1.764c-.893-.38-1.719-.569-2.477-.569-.93.01-1.856.133-2.756.367v9.728c.9.234 1.826.357 2.756.367.755.002 1.581-.18 2.477-.546Zm16.482 12.077c-1.726-1.125-3.054-2.668-3.984-4.63-.929-1.963-1.394-4.141-1.394-6.535 0-2.398.465-4.576 1.394-6.534.93-1.959 2.258-3.502 3.984-4.63 1.725-1.126 3.726-1.689 6.002-1.689s4.276.563 6.002 1.689c1.726 1.126 3.053 2.67 3.983 4.63.93 1.96 1.394 4.139 1.394 6.534 0 2.398-.464 4.576-1.394 6.534-.93 1.958-2.257 3.502-3.983 4.63-1.725 1.125-3.726 1.688-6.002 1.69-2.277 0-4.277-.563-6.002-1.69Zm10.131-1.175c1.162-.93 2.049-2.246 2.662-3.946.613-1.7.919-3.714.918-6.039 0-2.325-.306-4.338-.918-6.039-.611-1.7-1.498-3.015-2.662-3.945-1.162-.93-2.538-1.396-4.129-1.396-1.591 0-2.968.465-4.13 1.396-1.162.93-2.049 2.245-2.661 3.945-.611 1.7-.917 3.713-.918 6.039 0 2.326.306 4.339.918 6.039.612 1.7 1.499 3.015 2.661 3.946 1.162.93 2.539 1.395 4.13 1.395 1.591-.001 2.967-.465 4.129-1.394Zm12.574-17.694c0-1.25-.172-2.173-.515-2.771-.343-.598-1.028-.898-2.055-.9h-.734v-.734h9.544c2.667 0 4.985.441 6.956 1.323 1.971.882 2.956 2.583 2.956 5.103 0 1.15-.392 2.19-1.175 3.12-.784.928-1.983 1.663-3.597 2.204 2.251.368 3.823 1.035 4.717 2.001.893.967 1.34 2.257 1.339 3.873 0 2.473-.973 4.192-2.918 5.158-1.945.965-4.337 1.448-7.176 1.45h-7.342V27.27Zm6.79 6.792a7.209 7.209 0 0 0 2.846-.569 5.253 5.253 0 0 0 2.183-1.689c.564-.746.846-1.645.845-2.698 0-1.103-.331-2.026-.992-2.772a5.878 5.878 0 0 0-2.515-1.653 9.335 9.335 0 0 0-3.102-.533c-.93.01-1.856.133-2.756.367v9.545l3.491.002Zm5.158 10.425c1.212-.882 1.818-2.154 1.817-3.818-.001-1.663-.594-2.935-1.78-3.817-1.188-.882-2.919-1.323-5.195-1.323h-3.486v9.767a12.36 12.36 0 0 0 3.486.514c2.227 0 3.947-.442 5.158-1.323Zm10.884-17.217c0-1.25-.171-2.173-.514-2.771-.342-.598-1.028-.898-2.056-.9h-.734v-.734h15.638c2.081 0 3.121.98 3.12 2.937v2.756h-.734c0-2.815-1.53-4.222-4.588-4.222h-6.828v9.544h9.911v1.468h-9.911v10.279h6.42c1.69 0 3.013-.306 3.968-.917.956-.612 1.714-1.652 2.277-3.121l.734.184-1.285 3.487c-.441 1.224-1.36 1.836-2.756 1.835h-12.662V27.271Zm20.741-.111c-.612-1.418-1.187-2.39-1.726-2.917-.538-.526-1.31-.838-2.315-.936v-.734c.124 0 .301-.012.533-.037a7.166 7.166 0 0 1 4.244.898c1.126.626 2.081 1.868 2.866 3.727l6.277 14.794 2.166-5.03c1.029-2.373 2.999-7.06 5.91-14.059h1.764l-10.537 24.595h-.661l-8.521-20.3Zm-63.268 38.785-2.486-3.483a7.256 7.256 0 0 1-1.012.075h-2.976v3.408h-.759V55.528h3.735c2.619 0 4.197 1.31 4.197 3.513 0 1.653-.893 2.796-2.441 3.258l2.605 3.646h-.863Zm-3.498-4.08c2.232 0 3.417-1.04 3.417-2.826 0-1.8-1.19-2.827-3.417-2.827h-2.976v5.654h2.976Zm13.05.374h-6.687c.075 1.845 1.433 3.095 3.29 3.095.982 0 1.889-.357 2.485-1.087l.432.492c-.685.834-1.756 1.264-2.933 1.264-2.351 0-4.002-1.636-4.002-3.943 0-2.306 1.591-3.943 3.72-3.943 2.129 0 3.705 1.607 3.705 3.914.005.06-.01.132-.01.208Zm-6.667-.581h5.953c-.11-1.681-1.323-2.886-2.976-2.886-1.654 0-2.858 1.186-2.977 2.886Zm14.122-.639v4.925h-.714v-1.383c-.492.892-1.445 1.443-2.798 1.443-1.742 0-2.798-.893-2.798-2.217 0-1.176.744-2.173 2.902-2.173h2.664v-.625c0-1.444-.789-2.217-2.307-2.217a4.025 4.025 0 0 0-2.678.982l-.373-.535c.772-.685 1.905-1.103 3.11-1.103 1.92.001 2.992.983 2.992 2.903Zm-.744 2.633v-1.458h-2.646c-1.607 0-2.173.67-2.173 1.563 0 1.012.79 1.637 2.159 1.637 1.305 0 2.213-.625 2.66-1.742Zm3.557-8.749h.744v11.042h-.744V54.903Zm7.38 10.551c-.387.372-1.012.551-1.591.551-1.37 0-2.114-.803-2.114-2.113v-5.07h-1.433v-.64h1.433v-1.697h.744v1.697h2.471v.64h-2.471v4.995c0 .992.491 1.544 1.443 1.544.442.01.872-.144 1.206-.433l.312.526Z" fill="#333030"/><path d="m184.992 58.178-3.988 8.824c-.625 1.433-1.399 1.89-2.425 1.89-.7 0-1.355-.239-1.802-.7l.373-.565a1.888 1.888 0 0 0 1.443.61c.714 0 1.236-.33 1.711-1.384l.418-.938-3.496-7.737h.789l3.11 6.945 3.11-6.945h.757Zm12.621 2.602h.728v3.9c-.937.893-2.291 1.34-3.72 1.34-3.14 0-5.447-2.248-5.447-5.284 0-3.036 2.307-5.283 5.462-5.283 1.503 0 2.828.476 3.748 1.433l-.477.506c-.907-.893-1.993-1.235-3.259-1.235-2.708 0-4.717 1.965-4.717 4.583 0 2.618 2.009 4.584 4.717 4.584 1.103 0 2.114-.268 2.962-.953l.003-3.59Zm7.246-2.663v.729c-.059 0-.119-.014-.178-.014-1.727 0-2.756 1.145-2.756 3.064v4.048h-.744v-7.767h.714v1.696c.48-1.127 1.506-1.756 2.964-1.756Zm.878 3.943c0-2.306 1.654-3.943 3.884-3.943s3.884 1.637 3.884 3.943-1.653 3.944-3.884 3.944-3.884-1.636-3.884-3.944Zm7.009 0c0-1.95-1.339-3.274-3.125-3.274s-3.125 1.323-3.125 3.274 1.339 3.274 3.125 3.274 3.125-1.325 3.125-3.274Zm9.614-3.882v7.767h-.709v-1.667c-.506 1.087-1.562 1.726-2.931 1.726-1.985 0-3.245-1.115-3.245-3.288v-4.538h.744v4.479c0 1.756.937 2.678 2.56 2.678 1.756 0 2.842-1.176 2.842-3.021v-4.136h.739Zm10.645 3.882c0 2.336-1.653 3.944-3.839 3.944-1.369 0-2.53-.67-3.154-1.83v4.657h-.744V58.177h.714v1.83c.61-1.19 1.785-1.89 3.184-1.89 2.186 0 3.839 1.62 3.839 3.943Zm-.744 0c0-1.95-1.354-3.274-3.14-3.274-1.785 0-3.125 1.323-3.125 3.274s1.34 3.274 3.125 3.274c1.786 0 3.134-1.325 3.134-3.274h.006Z" fill="#333030"/><path d="M70.398 61.976h65.48" stroke="#333030" stroke-width=".5" stroke-miterlimit="10"/></g><defs><linearGradient id="b" x1="0" y1="36.304" x2="50.852" y2="36.304" gradientUnits="userSpaceOnUse"><stop stop-color="#E7E3E0"/><stop offset=".06" stop-color="#D8D4D3"/><stop offset=".19" stop-color="#B2ADB0"/><stop offset=".26" stop-color="#989398"/><stop offset=".52" stop-color="#F8F8F8"/><stop offset=".59" stop-color="#EAE9EA"/><stop offset=".71" stop-color="#C5C2C4"/><stop offset=".88" stop-color="#8C878A"/><stop offset="1" stop-color="#B2B2B2"/></linearGradient><linearGradient id="c" x1="13.631" y1="20.412" x2="32.862" y2="20.412" gradientUnits="userSpaceOnUse"><stop stop-color="#E7E3E0"/><stop offset=".06" stop-color="#D8D4D3"/><stop offset=".19" stop-color="#B2ADB0"/><stop offset=".26" stop-color="#989398"/><stop offset=".52" stop-color="#F8F8F8"/><stop offset=".59" stop-color="#EAE9EA"/><stop offset=".71" stop-color="#C5C2C4"/><stop offset=".88" stop-color="#8C878A"/><stop offset="1" stop-color="#B2B2B2"/></linearGradient><linearGradient id="d" x1="20.838" y1="41.677" x2="56.225" y2="41.677" gradientUnits="userSpaceOnUse"><stop stop-color="#E7E3E0"/><stop offset=".06" stop-color="#D8D4D3"/><stop offset=".19" stop-color="#B2ADB0"/><stop offset=".26" stop-color="#989398"/><stop offset=".52" stop-color="#F8F8F8"/><stop offset=".59" stop-color="#EAE9EA"/><stop offset=".71" stop-color="#C5C2C4"/><stop offset=".88" stop-color="#8C878A"/><stop offset="1" stop-color="#B2B2B2"/></linearGradient><linearGradient id="e" x1="31.716" y1="40.825" x2="61.468" y2="40.825" gradientUnits="userSpaceOnUse"><stop stop-color="#E7E3E0"/><stop offset=".06" stop-color="#D8D4D3"/><stop offset=".19" stop-color="#B2ADB0"/><stop offset=".26" stop-color="#989398"/><stop offset=".52" stop-color="#F8F8F8"/><stop offset=".59" stop-color="#EAE9EA"/><stop offset=".71" stop-color="#C5C2C4"/><stop offset=".88" stop-color="#8C878A"/><stop offset="1" stop-color="#B2B2B2"/></linearGradient><clipPath id="a"><path fill="#fff" d="M0 0h233v77.85H0z"/></clipPath></defs></svg>