<svg width="160" height="54" fill="none" xmlns="http://www.w3.org/2000/svg"><g clip-path="url(#a)"><path d="M25.563 3.33 14.04 29.61 7.2 9.99 0 12.6l13.323 37.26L34.923 0l-9.36 3.33ZM3.42 14.13l2.25-1.17 8.1 23.58L27.269 5.49l3.24-1.08L13.77 42.84 3.42 14.129Z" fill="url(#b)"/><path d="m9.364 9.36 5.086 14.265L22.57 4.41 9.363 9.36Zm3.15 1.62 5.4-2.16-3.331 7.74-2.07-5.58Z" fill="url(#c)"/><path d="m14.31 53.46 3.33-1.17L38.61 3.78l-3.33 1.44-20.97 48.24Z" fill="url(#d)"/><path d="m38.819 8.82 3.39-.99-17.131 39.195-3.299 1.214L38.82 8.82Z" fill="url(#e)"/><path d="M49.701 18.651c-.42-.974-.815-1.642-1.184-2.003-.37-.362-.9-.576-1.59-.643v-.504c.085 0 .206-.008.366-.025a4.926 4.926 0 0 1 2.914.617c.772.429 1.428 1.282 1.967 2.558l4.31 10.16 1.488-3.454c.707-1.63 2.06-4.848 4.058-9.655h1.212l-7.235 16.89h-.454L49.7 18.651Zm18.39 13.032c-1.184-.772-2.096-1.831-2.735-3.179-.639-1.347-.959-2.842-.96-4.483 0-1.647.32-3.142.958-4.487.638-1.345 1.55-2.405 2.735-3.18 1.185-.773 2.559-1.16 4.122-1.16 1.563 0 2.936.387 4.12 1.16 1.185.774 2.097 1.834 2.736 3.18.639 1.346.958 2.842.958 4.487 0 1.647-.32 3.143-.958 4.487-.64 1.344-1.55 2.404-2.735 3.18-1.185.772-2.559 1.159-4.121 1.159-1.563 0-2.936-.387-4.12-1.164Zm6.958-.806c.797-.639 1.407-1.542 1.827-2.71.42-1.168.63-2.55.63-4.146 0-1.597-.21-2.98-.63-4.147-.42-1.168-1.03-2.071-1.827-2.71-.8-.638-1.745-.958-2.836-.958-1.092 0-2.037.32-2.837.959-.797.638-1.407 1.541-1.827 2.709-.42 1.167-.63 2.55-.63 4.147 0 1.597.21 2.98.63 4.146.42 1.168 1.03 2.07 1.827 2.71.798.64 1.744.958 2.837.958 1.093 0 2.038-.32 2.836-.957Zm17.393.92c-.664-.529-1.4-1.482-2.206-2.86l-2.521-4.286H85.95v7.688h-2.27V18.727c0-.858-.118-1.492-.353-1.903-.236-.41-.706-.617-1.412-.618h-.504v-.504h6.554c1.596 0 3.045.315 4.348.946 1.302.63 1.954 1.827 1.954 3.591 0 2.236-1.345 3.665-4.034 4.286l2.65 4.412c.621 1.042 1.18 1.768 1.676 2.18.489.41 1.091.66 1.727.718v.504a2.913 2.913 0 0 1-.643.177 4.823 4.823 0 0 1-.87.075 3.625 3.625 0 0 1-2.331-.794Zm-2.9-8.406a3.846 3.846 0 0 0 1.563-1.185c.429-.538.643-1.194.643-1.968 0-.823-.214-1.508-.643-2.054a3.907 3.907 0 0 0-1.563-1.212c-.613-.26-1.18-.39-1.7-.39a7.814 7.814 0 0 0-1.893.252v6.68a7.814 7.814 0 0 0 1.892.252c.519.002 1.086-.123 1.701-.375Zm11.319 8.292c-1.186-.772-2.098-1.831-2.736-3.179-.639-1.347-.958-2.843-.958-4.487 0-1.647.32-3.142.958-4.487.638-1.345 1.55-2.405 2.736-3.18 1.184-.773 2.558-1.16 4.121-1.16 1.563 0 2.936.388 4.121 1.16 1.185.774 2.097 1.833 2.735 3.18.639 1.346.958 2.842.958 4.487 0 1.647-.319 3.143-.958 4.487-.638 1.345-1.55 2.404-2.735 3.18-1.184.772-2.558 1.159-4.121 1.16-1.564 0-2.937-.387-4.121-1.16Zm6.956-.806c.798-.639 1.408-1.542 1.828-2.71.421-1.168.631-2.55.63-4.147 0-1.596-.21-2.979-.63-4.146-.419-1.168-1.029-2.071-1.828-2.71-.798-.639-1.743-.958-2.835-.958-1.093 0-2.038.32-2.836.958-.798.64-1.408 1.542-1.827 2.71-.42 1.167-.63 2.55-.631 4.146 0 1.598.21 2.98.631 4.147.42 1.167 1.029 2.07 1.827 2.71.798.64 1.743.958 2.836.958 1.092 0 2.037-.32 2.835-.957Zm8.635-12.15c0-.858-.118-1.492-.354-1.903-.235-.41-.706-.617-1.411-.618h-.504v-.504h6.554c1.831 0 3.423.303 4.777.908 1.353.606 2.03 1.774 2.029 3.505 0 .79-.269 1.504-.807 2.142-.538.638-1.361 1.142-2.47 1.514 1.546.252 2.626.71 3.239 1.374.614.663.921 1.55.92 2.66 0 1.697-.668 2.878-2.004 3.541-1.335.663-2.978.995-4.928.996h-5.041V18.727Zm4.663 4.664a4.954 4.954 0 0 0 1.954-.39 3.605 3.605 0 0 0 1.499-1.16c.387-.513.581-1.13.58-1.854 0-.756-.227-1.39-.681-1.903a4.036 4.036 0 0 0-1.727-1.135 6.41 6.41 0 0 0-2.13-.366 7.813 7.813 0 0 0-1.893.252v6.554l2.398.002Zm3.542 7.159c.832-.606 1.248-1.48 1.247-2.622 0-1.142-.408-2.016-1.222-2.621-.816-.606-2.005-.909-3.567-.909h-2.395v6.707c.778.231 1.584.35 2.395.353 1.529 0 2.71-.303 3.542-.908Zm7.473-11.823c0-.858-.117-1.492-.353-1.903-.235-.41-.705-.617-1.411-.618h-.504v-.504H140.6c1.429 0 2.143.672 2.142 2.017v1.892h-.504c0-1.933-1.05-2.899-3.15-2.899h-4.689v6.554h6.806v1.008h-6.806v7.058h4.409c1.16 0 2.069-.21 2.725-.63.656-.42 1.177-1.134 1.563-2.142l.504.126-.883 2.394c-.302.841-.933 1.261-1.892 1.26h-8.695V18.728Zm14.243-.076c-.42-.974-.815-1.642-1.185-2.003-.37-.362-.899-.576-1.589-.643v-.504c.084 0 .206-.008.365-.025a4.923 4.923 0 0 1 2.915.617c.773.429 1.429 1.282 1.968 2.558l4.31 10.16 1.488-3.454c.706-1.63 2.059-4.848 4.058-9.655h1.211l-7.235 16.89h-.454l-5.852-13.94Zm-43.446 26.633-1.707-2.392c-.23.034-.462.05-.695.052h-2.044v2.34h-.52V38.13h2.564c1.799 0 2.882.9 2.882 2.412 0 1.135-.613 1.92-1.676 2.237l1.789 2.504h-.593Zm-2.402-2.801c1.533 0 2.347-.716 2.347-1.941 0-1.237-.818-1.942-2.347-1.942h-2.044v3.883h2.044Zm8.962.257h-4.592c.051 1.267.984 2.125 2.259 2.125.674 0 1.297-.245 1.706-.746l.297.337c-.47.573-1.206.869-2.014.869-1.615 0-2.748-1.125-2.748-2.708 0-1.584 1.093-2.708 2.554-2.708 1.462 0 2.545 1.104 2.545 2.688.003.04-.007.09-.007.143Zm-4.578-.4h4.087c-.075-1.154-.908-1.981-2.044-1.981-1.135 0-1.962.814-2.043 1.982Zm9.697-.439v3.383h-.491v-.95c-.337.613-.991.99-1.921.99-1.196 0-1.921-.613-1.921-1.522 0-.808.511-1.492 1.993-1.492h1.829v-.43c0-.99-.542-1.521-1.584-1.521a2.764 2.764 0 0 0-1.839.674l-.256-.368c.53-.47 1.308-.757 2.135-.757 1.319.001 2.055.675 2.055 1.993Zm-.511 1.809v-1.002h-1.817c-1.103 0-1.492.46-1.492 1.074 0 .695.542 1.124 1.482 1.124.897 0 1.52-.43 1.827-1.196Zm2.443-6.008h.511v7.582h-.511v-7.582Zm5.068 7.245c-.266.255-.695.378-1.093.378-.941 0-1.452-.551-1.452-1.45v-3.483h-.984v-.439h.984v-1.165h.511v1.165h1.697v.44h-1.697v3.43c0 .681.337 1.06.991 1.06.304.007.599-.1.828-.297l.215.36Z" fill="#fff"/><path d="m127.033 39.95-2.738 6.06c-.43.984-.961 1.297-1.666 1.297-.48 0-.93-.163-1.237-.48l.256-.388a1.3 1.3 0 0 0 .991.419c.491 0 .849-.227 1.175-.95l.287-.645-2.401-5.313h.542l2.136 4.77 2.135-4.77h.52Zm8.667 1.788h.5v2.678c-.644.613-1.574.92-2.555.92-2.156 0-3.74-1.544-3.74-3.629s1.584-3.627 3.751-3.627c1.031 0 1.941.327 2.573.984l-.327.347c-.623-.613-1.369-.848-2.238-.848-1.86 0-3.239 1.35-3.239 3.147 0 1.798 1.379 3.148 3.239 3.148.757 0 1.451-.184 2.034-.654l.002-2.466Zm4.976-1.828v.5c-.041 0-.082-.01-.123-.01-1.185 0-1.892.786-1.892 2.104v2.78h-.511V39.95h.49v1.165c.33-.774 1.034-1.206 2.036-1.206Zm.603 2.707c0-1.584 1.135-2.708 2.666-2.708 1.532 0 2.668 1.124 2.668 2.708s-1.135 2.708-2.668 2.708c-1.532 0-2.666-1.124-2.666-2.708Zm4.813 0c0-1.34-.92-2.248-2.147-2.248-1.226 0-2.146.908-2.146 2.248 0 1.34.92 2.248 2.146 2.248 1.227 0 2.147-.91 2.147-2.248Zm6.601-2.667v5.334h-.487v-1.145c-.347.747-1.072 1.186-2.012 1.186-1.363 0-2.228-.766-2.228-2.258V39.95h.511v3.076c0 1.206.643 1.84 1.758 1.84 1.205 0 1.951-.808 1.951-2.076v-2.84h.507Zm7.31 2.667c0 1.604-1.135 2.708-2.636 2.708-.94 0-1.737-.46-2.166-1.257v3.198h-.511V39.95h.491v1.257c.418-.818 1.225-1.298 2.186-1.298 1.501 0 2.636 1.113 2.636 2.708Zm-.51 0c0-1.34-.93-2.248-2.156-2.248-1.227 0-2.146.908-2.146 2.248 0 1.34.919 2.248 2.146 2.248 1.226 0 2.152-.91 2.152-2.248h.004Z" fill="#fff"/><path d="M48.342 42.559h44.965" stroke="#fff" stroke-width=".5" stroke-miterlimit="10"/></g><defs><linearGradient id="b" x1="0" y1="24.93" x2="34.92" y2="24.93" gradientUnits="userSpaceOnUse"><stop stop-color="#E7E3E0"/><stop offset=".06" stop-color="#D8D4D3"/><stop offset=".19" stop-color="#B2ADB0"/><stop offset=".26" stop-color="#989398"/><stop offset=".52" stop-color="#F8F8F8"/><stop offset=".59" stop-color="#EAE9EA"/><stop offset=".71" stop-color="#C5C2C4"/><stop offset=".88" stop-color="#8C878A"/><stop offset="1" stop-color="#B2B2B2"/></linearGradient><linearGradient id="c" x1="9.361" y1="14.017" x2="22.566" y2="14.017" gradientUnits="userSpaceOnUse"><stop stop-color="#E7E3E0"/><stop offset=".06" stop-color="#D8D4D3"/><stop offset=".19" stop-color="#B2ADB0"/><stop offset=".26" stop-color="#989398"/><stop offset=".52" stop-color="#F8F8F8"/><stop offset=".59" stop-color="#EAE9EA"/><stop offset=".71" stop-color="#C5C2C4"/><stop offset=".88" stop-color="#8C878A"/><stop offset="1" stop-color="#B2B2B2"/></linearGradient><linearGradient id="d" x1="14.309" y1="28.62" x2="38.609" y2="28.62" gradientUnits="userSpaceOnUse"><stop stop-color="#E7E3E0"/><stop offset=".06" stop-color="#D8D4D3"/><stop offset=".19" stop-color="#B2ADB0"/><stop offset=".26" stop-color="#989398"/><stop offset=".52" stop-color="#F8F8F8"/><stop offset=".59" stop-color="#EAE9EA"/><stop offset=".71" stop-color="#C5C2C4"/><stop offset=".88" stop-color="#8C878A"/><stop offset="1" stop-color="#B2B2B2"/></linearGradient><linearGradient id="e" x1="21.779" y1="28.034" x2="42.209" y2="28.034" gradientUnits="userSpaceOnUse"><stop stop-color="#E7E3E0"/><stop offset=".06" stop-color="#D8D4D3"/><stop offset=".19" stop-color="#B2ADB0"/><stop offset=".26" stop-color="#989398"/><stop offset=".52" stop-color="#F8F8F8"/><stop offset=".59" stop-color="#EAE9EA"/><stop offset=".71" stop-color="#C5C2C4"/><stop offset=".88" stop-color="#8C878A"/><stop offset="1" stop-color="#B2B2B2"/></linearGradient><clipPath id="a"><path fill="#fff" d="M0 0h160v53.459H0z"/></clipPath></defs></svg>