<svg width="8" height="12" fill="none" xmlns="http://www.w3.org/2000/svg"><g clip-path="url(#a)"><path d="M7.999 4.011c-.008.442-.09.934-.337 1.398l-3.235 6.078c-.05.094-.114.181-.19.259a.328.328 0 0 1-.479 0 .977.977 0 0 1-.18-.24L.325 5.327c-.327-.62-.39-1.265-.263-1.93C.343 1.93 1.559.766 3.19.485c1.611-.278 2.96.178 3.984 1.34.55.622.795 1.313.825 2.186Zm-6.256-.033c-.035 1.095.968 2.023 2.222 2.057 1.225.032 2.257-.872 2.29-2.005.031-1.1-.962-2.03-2.223-2.052-1.227-.026-2.258.845-2.289 2Z" fill="#fff"/></g><defs><clipPath id="a"><path fill="#fff" transform="translate(0 .405)" d="M0 0h8v11.444H0z"/></clipPath></defs></svg>