<svg width="38" height="37" fill="none" xmlns="http://www.w3.org/2000/svg"><circle cx="18.915" cy="18.5" r="18.5" fill="#4C9DD9"/><g clip-path="url(#a)"><path d="M19.67 22.506a2.922 2.922 0 0 0-.442.233c-.643.492-1.276.996-1.913 1.496-.34.27-.662.178-.793-.233-.446-1.376-.89-2.751-1.331-4.127a.348.348 0 0 0-.089-.166.367.367 0 0 0-.164-.099 355.401 355.401 0 0 1-3.398-1.222.695.695 0 0 1-.3-.199.392.392 0 0 1 .197-.609c.217-.094.444-.169.667-.252l14.343-5.33a.774.774 0 0 1 .315-.06c.265.023.419.259.361.53-.175.817-.35 1.635-.528 2.454-.578 2.675-1.154 5.35-1.73 8.025-.145.666-.287 1.333-.435 1.998-.084.38-.41.502-.74.272-1.19-.831-2.378-1.666-3.574-2.494a3.279 3.279 0 0 0-.447-.217Zm-3.695-2.924c.005.06.016.12.031.179.253.86.508 1.722.764 2.582.03.102.078.177.2.17.123-.008.168-.097.183-.206.053-.391.113-.782.158-1.175.039-.412.242-.793.567-1.063 1.556-1.38 3.102-2.773 4.652-4.16l1.073-.962c.066-.058.145-.12.066-.218-.079-.098-.157-.033-.233.014l-.04.023-5.386 3.196-1.658.983a.743.743 0 0 0-.278.27.707.707 0 0 0-.1.367Z" fill="#fff"/></g><defs><clipPath id="a"><path fill="#fff" transform="translate(11.156 11.935)" d="M0 0h15.976v13.397H0z"/></clipPath></defs></svg>