<svg width="11" height="15" fill="none" xmlns="http://www.w3.org/2000/svg"><g clip-path="url(#a)"><path d="M1.225 1.224c-.22 0-.42.007-.62 0A.61.61 0 1 1 .648.002h9.708c.307 0 .538.165.619.435a.58.58 0 0 1-.254.683.958.958 0 0 1-.379.103c-.179.017-.361.004-.564.004V3.18c0 1.077-.407 1.974-1.203 2.696-.318.288-.637.574-.958.86-.381.343-.385.845-.007 1.187.36.327.732.644 1.082.982.696.669 1.063 1.489 1.082 2.459.013.634.004 1.27.005 1.904v.172c.21 0 .404-.005.598 0 .435.012.72.394.597.794a.61.61 0 0 1-.537.428c-.033.002-.066 0-.1 0H.669c-.307 0-.526-.137-.625-.388-.16-.405.129-.822.581-.836.194-.006.39 0 .6 0v-1.962c0-1.078.411-1.973 1.21-2.692.311-.281.623-.562.936-.842.407-.365.406-.859-.003-1.228-.354-.32-.717-.63-1.06-.962C1.62 5.09 1.254 4.276 1.23 3.32c-.016-.635-.005-1.27-.006-1.904v-.192Zm6.709 12.21c.003-.033.008-.058.008-.079 0-.649.003-1.298-.006-1.947a1.44 1.44 0 0 0-.405-1 93.798 93.798 0 0 0-1.719-1.725.435.435 0 0 0-.63.004c-.57.565-1.138 1.13-1.697 1.705-.27.277-.422.65-.42 1.037-.008.644-.004 1.288-.005 1.933a.458.458 0 0 0 .012.07l4.862.001Z" fill="#fff"/></g><defs><clipPath id="a"><path fill="#fff" d="M0 0h11v14.665H0z"/></clipPath></defs></svg>