<svg width="17" height="18" fill="none" xmlns="http://www.w3.org/2000/svg"><g clip-path="url(#a)" fill="#fff"><path d="M17 11.524a5.477 5.477 0 1 1-5.481-5.472A5.485 5.485 0 0 1 17 11.524Zm-4.979 2.41.172-.082a1.48 1.48 0 0 0 .536-2.206c-.299-.405-.708-.6-1.21-.617a.498.498 0 1 1 .485-.623c.013.04.023.081.033.119h.974a.964.964 0 0 0 0-.152c-.076-.537-.35-.939-.84-1.172a.225.225 0 0 1-.15-.25c.008-.297 0-.597 0-.897h-.996v1.069c-.063.03-.118.055-.172.082a1.472 1.472 0 0 0-.71 1.889c.257.601.73.905 1.386.934a.499.499 0 0 1 .492.469.508.508 0 0 1-.42.52.5.5 0 0 1-.556-.364c-.013-.04-.023-.081-.034-.12h-.968a.3.3 0 0 0-.01.053c0 .034 0 .067.005.1.077.536.35.938.841 1.171a.225.225 0 0 1 .15.25c-.009.297 0 .598 0 .897h.995l-.003-1.07ZM5.457 6.055c-1.188-.017-2.437-.203-3.609-.758a3.993 3.993 0 0 1-1.266-.893c-.77-.84-.77-1.854 0-2.694.55-.597 1.244-.974 2.002-1.22C4.64-.18 6.692-.176 8.727.576c.654.241 1.246.597 1.72 1.12.788.875.768 1.93-.051 2.776-.55.567-1.237.901-1.973 1.146-.93.311-1.892.43-2.966.436ZM.006 5.252c1.175 1.043 2.563 1.491 4.05 1.691.47.061.944.094 1.42.097.473.006.947-.037 1.431-.058a.982.982 0 0 1-.066.088A6.278 6.278 0 0 0 5.62 8.89a.21.21 0 0 1-.231.15c-1.29-.035-2.538-.246-3.7-.837-.512-.26-.971-.593-1.312-1.067a1.87 1.87 0 0 1-.371-1.145c.002-.236-.001-.474-.001-.74Zm6.047 9.729c-.46 0-.897.026-1.327-.005-1.062-.074-2.086-.307-3.039-.797-.505-.26-.961-.588-1.3-1.056a1.874 1.874 0 0 1-.38-1.159c.005-.236 0-.471 0-.715.261.193.499.39.756.554.948.605 2.001.921 3.103 1.083.398.059.802.083 1.204.114.113.008.172.036.203.16a6.07 6.07 0 0 0 .722 1.718c.019.026.031.055.058.103ZM5.08 12.03c-.513-.072-.995-.118-1.471-.207-.863-.163-1.69-.442-2.423-.94C.664 10.525.206 10.1.07 9.455-.01 9.073.008 8.67 0 8.266c1.512 1.283 3.314 1.66 5.228 1.764-.136.648-.221 1.291-.148 2Z"/></g><defs><clipPath id="a"><path fill="#fff" d="M0 0h17v17.006H0z"/></clipPath></defs></svg>