<svg width="13" height="17" fill="none" xmlns="http://www.w3.org/2000/svg"><g clip-path="url(#a)" fill="#fff" fill-opacity=".7"><path d="M0 16.892V.002h11.187c1.068 0 1.811.743 1.812 1.816V15.08c0 1.072-.744 1.816-1.814 1.816H.167L0 16.892Zm6.49-6.252a4.13 4.13 0 1 0 .023-8.261 4.13 4.13 0 0 0-.022 8.261Zm-3.465 2.092h6.934v-.969H3.025v.969Zm6.014 1.963v-.97H3.955v.968l5.084.002Z"/><path d="M5.566 7.012h1.847c-.066.803-.17 1.584-.567 2.291-.02.033-.04.066-.063.096-.226.323-.364.325-.585-.006-.309-.462-.437-.99-.528-1.529-.043-.275-.065-.554-.104-.852Zm1.85-1.005H5.568c.035-.283.061-.56.103-.832.073-.468.187-.923.412-1.346.08-.137.173-.266.278-.384a.16.16 0 0 1 .27 0c.1.108.189.227.264.355.36.684.46 1.43.52 2.207ZM3.392 7.012h1.175c.052.388.085.772.157 1.147.073.376.181.73.28 1.116-.887-.514-1.42-1.255-1.612-2.263Zm4.6 2.248c.095-.379.205-.746.277-1.12.072-.376.103-.748.154-1.13h1.148c.038.712-.774 1.87-1.58 2.25Zm1.592-3.258H8.407c-.053-.762-.164-1.507-.436-2.227.642.126 1.526 1.346 1.613 2.227Zm-5-.001H3.393c.192-1.003.726-1.745 1.61-2.238a8.437 8.437 0 0 0-.419 2.238Z"/></g><defs><clipPath id="a"><path fill="#fff" d="M0 0h13v16.892H0z"/></clipPath></defs></svg>