<svg width="18" height="15" fill="none" xmlns="http://www.w3.org/2000/svg"><g clip-path="url(#a)" fill="#fff" fill-opacity=".7"><path d="M5.306 12.946c-.276.234-.522.48-.803.674-.48.33-1.028.469-1.61.468H.66c-.57 0-.828-.454-.545-.95 1.535-2.69 3.07-5.377 4.606-8.064.128-.224.302-.377.572-.367a.531.531 0 0 1 .509.34.985.985 0 0 1 .06.36c.006 1.06 0 2.12 0 3.18v.188c.257-.127.493-.258.745-.365.352-.15.723-.192 1.1-.192h7.258c1.35 0 2.428.755 2.87 1.994.6 1.678-.544 3.586-2.303 3.833a4.584 4.584 0 0 1-.63.042c-2.314 0-4.628-.016-6.942.009-1.08.008-1.986-.306-2.654-1.15Zm7.995-1.809c-.018.938.774 1.758 1.72 1.778a1.78 1.78 0 0 0 1.8-1.733c.026-.937-.77-1.765-1.712-1.783a1.77 1.77 0 0 0-1.808 1.735v.003Zm-3.918.015a1.758 1.758 0 1 0-1.75 1.764 1.767 1.767 0 0 0 1.75-1.767v.003Z"/><path d="M16.813 7.452c-.813-.413-1.661-.413-2.514-.413-2.174.007-4.347 0-6.52 0h-.734a2.235 2.235 0 0 1 .351-1.232c.175-.292.416-.539.703-.721a.23.23 0 0 0 .118-.23 15.21 15.21 0 0 1 0-.739c.008-.351.25-.596.58-.597.33 0 .582.251.587.61v.541h.525c.102-.403.207-.815.31-1.228.24-.96.478-1.918.716-2.878.104-.417.294-.568.72-.568h3.339c.884 0 1.53.492 1.769 1.343.041.158.06.322.058.486.005 1.815.005 3.631 0 5.448.002.046-.003.095-.008.178Zm-5.691-2.776a.722.722 0 0 0 .104.014h2.672a.566.566 0 0 0 .576-.585c.008-.778.008-1.557 0-2.336 0-.352-.255-.586-.609-.593-.24-.005-.48 0-.72 0h-1.148l-.875 3.5Zm4.521 6.476a.583.583 0 1 1-1.166 0 .583.583 0 0 1 1.166 0Zm-7.43-.005a.587.587 0 1 1-.6-.583.597.597 0 0 1 .6.583Z"/></g><defs><clipPath id="a"><path fill="#fff" d="M0 0h18v14.092H0z"/></clipPath></defs></svg>