<svg width="17" height="19" fill="none" xmlns="http://www.w3.org/2000/svg"><g clip-path="url(#a)"><path d="M0 18.892V17.02h1.873V0h13.241v17.008h1.883v1.884H0Zm6.65-1.893h3.735c0-.652.008-1.291 0-1.93a1.89 1.89 0 0 0-1.736-1.832c-.941-.08-1.875.583-1.983 1.521-.085.734-.017 1.485-.017 2.241h.001Zm.918-7.545v1.863H9.44V9.454H7.568Zm0-7.57V3.75h1.867V1.883H7.568Zm0 3.787v1.871h1.867v-1.87H7.568ZM3.785 1.88v1.87h1.861V1.88h-1.86Zm9.435 1.877v-1.87h-1.865v1.87h1.865ZM3.788 5.67v1.872h1.86V5.67h-1.86Zm9.432.007h-1.862v1.866h1.862V5.678ZM3.785 9.454v1.863H5.65V9.454H3.785Zm7.571 0v1.87h1.864V9.452l-1.864.002Z" fill="#fff" fill-opacity=".7"/></g><defs><clipPath id="a"><path fill="#fff" d="M0 0h17v18.892H0z"/></clipPath></defs></svg>