<svg width="17" height="18" fill="none" xmlns="http://www.w3.org/2000/svg"><g clip-path="url(#a)"><path d="m8.905 10.304-3.482 3.48 1.168 1.163c.346.346.345.611 0 .955L5.343 17.15c-.308.306-.588.304-.894 0l-1.214-1.215-.853.86c-.167.168-.363.26-.596.17a.796.796 0 0 1-.26-.18c-.433-.424-.859-.854-1.287-1.283-.315-.315-.317-.594-.003-.907l3.205-3.202C4.493 10.341 5.546 9.291 6.6 8.241c.09-.09.106-.153.046-.271C5.48 5.665 6.042 2.9 8.034 1.26 9.317.204 10.804-.185 12.446.082a5.466 5.466 0 0 1 4.455 4.334c.5 2.55-.854 5.126-3.247 6.11-1.557.642-3.108.585-4.624-.167a2.925 2.925 0 0 1-.125-.055ZM11.513 8.2a2.718 2.718 0 1 0 .022-5.436c-1.475-.026-2.716 1.193-2.73 2.69a2.716 2.716 0 0 0 2.708 2.743V8.2Z" fill="#fff" fill-opacity=".7"/></g><defs><clipPath id="a"><path fill="#fff" d="M0 0h17v17.378H0z"/></clipPath></defs></svg>