<svg width="37" height="37" fill="none" xmlns="http://www.w3.org/2000/svg"><circle cx="18.5" cy="18.5" r="18.5" fill="#47C53A"/><g clip-path="url(#a)" fill="#fff"><path d="M18.425 26.839a8.873 8.873 0 0 1-4.019-.953.497.497 0 0 0-.415-.03c-1.449.465-2.899.926-4.35 1.384-.124.04-.248.093-.363-.02-.115-.114-.062-.237-.02-.36.472-1.39.945-2.781 1.419-4.171a.442.442 0 0 0-.033-.397 8.308 8.308 0 0 1-1.107-4.532c.15-3.196 1.622-5.636 4.339-7.308a8.54 8.54 0 0 1 4.958-1.236 8.885 8.885 0 0 1 7.996 6.007 8.786 8.786 0 0 1-3.515 10.152 8.925 8.925 0 0 1-4.89 1.464Zm-6.435-2.281.18-.05c.67-.213 1.345-.422 2.015-.644a.515.515 0 0 1 .48.055c.87.556 1.856.908 2.882 1.03a7.048 7.048 0 0 0 6.59-2.887 6.882 6.882 0 0 0 .216-7.747 6.918 6.918 0 0 0-4.059-3.013 6.845 6.845 0 0 0-3.931.044 6.92 6.92 0 0 0-3.225 2.06 6.895 6.895 0 0 0-.515 8.56.514.514 0 0 1 .07.515c-.235.683-.461 1.363-.703 2.077Z"/><path d="M20.826 22.26c-.503-.025-1-.123-1.474-.29-1.965-.59-3.355-1.903-4.497-3.54-.4-.575-.748-1.173-.858-1.875a2.69 2.69 0 0 1 .392-1.958 1.266 1.266 0 0 1 .829-.583c.224-.043.45-.088.676-.119a.54.54 0 0 1 .609.321c.275.611.534 1.229.788 1.848.108.267-.033.497-.172.706-.127.182-.287.343-.422.515-.033.044-.057.14-.033.171.71 1.013 1.569 1.857 2.724 2.362a.208.208 0 0 0 .295-.076c.184-.242.383-.475.575-.714.192-.238.39-.315.699-.197.224.084.442.19.659.294.382.181.76.37 1.14.556a.48.48 0 0 1 .282.45c.066 1.326-.995 2.004-1.954 2.105-.08.017-.157.019-.258.024Z"/></g><defs><clipPath id="a"><path fill="#fff" transform="translate(9.207 9.208)" d="M0 0h18.084v18.082H0z"/></clipPath></defs></svg>