<svg width="25" height="25" fill="none" xmlns="http://www.w3.org/2000/svg"><circle cx="12.056" cy="12.056" r="11.706" stroke="#212225" stroke-width=".7"/><path d="M12.426 17c-1.38-.1-2.816-.19-4.252-.313a2.284 2.284 0 0 1-1.38-.664 1.867 1.867 0 0 1-.553-1.105 17.94 17.94 0 0 1 .035-6.063c.082-.468.345-.808.693-1.085.41-.319.897-.51 1.406-.551 2.52-.272 5.06-.29 7.583-.055.457.04.911.115 1.358.221.407.102.745.36 1.032.68.288.322.374.726.438 1.143a17.393 17.393 0 0 1-.09 5.957c-.052.273-.23.545-.415.759-.436.506-1.02.744-1.659.791-1.373.109-2.75.19-4.196.285Zm-1.471-2.428 4.049-2.601-4.05-2.602v5.203Z" fill="#212225"/></svg>