<svg width="49" height="57" viewBox="0 0 49 57" fill="none" xmlns="http://www.w3.org/2000/svg">
<g id="Frame" clip-path="url(#clip0_1_724)">
<path id="Vector" d="M0.00244141 20.5225C0.00244141 18.365 0.00244141 16.2066 0.00244141 14.0475C0.00244141 12.4096 0.742447 11.6128 2.40006 11.5808C5.67335 11.5388 8.8603 11.0356 11.9141 9.82203C16.326 8.12489 20.068 5.04166 22.5775 1.0357C23.4532 -0.345638 24.9357 -0.360442 25.8064 1.00117C29.4423 6.67454 34.6865 9.94043 41.2479 11.1146C42.7969 11.3933 44.3879 11.45 45.9641 11.5413C47.6489 11.6424 48.3988 12.3701 48.3963 14.0401C48.3963 18.1323 48.4654 22.222 48.3667 26.3118C48.1792 34.2052 45.2143 41.0034 39.8739 46.7853C36.0999 50.8652 31.6105 53.9633 26.5711 56.2845C25.8591 56.639 25.0764 56.8282 24.2811 56.8381C23.4858 56.8479 22.6986 56.6781 21.9781 56.3412C15.6313 53.4305 10.175 49.3778 6.00142 43.7217C2.18699 38.6173 0.0947284 32.432 0.0271097 26.0602C-0.00742382 24.2102 0.0271097 22.3602 0.0271097 20.5102L0.00244141 20.5225ZM16.9017 34.7824C16.6279 37.1701 18.4384 39.2816 22.1261 40.8628V44.1755H26.3195V40.9688C27.279 40.4582 28.209 40.0858 28.9983 39.5184C32.3752 37.0937 32.4147 32.6117 29.1216 30.0784C27.7194 29.0127 26.0038 28.4411 24.2425 28.4529C23.3532 28.4705 22.484 28.1871 21.7759 27.6488C20.8139 26.8865 20.8213 25.8234 21.7759 25.0365C23.3669 23.7119 26.8523 23.9907 27.4492 26.2945H31.6007C31.2899 22.967 29.2647 21.228 26.285 20.2512V16.8965H22.1015C22.1015 17.9053 22.0891 18.8846 22.1015 19.8565C22.1015 20.1772 21.9905 20.3005 21.6969 20.4214C20.9668 20.6875 20.2646 21.0246 19.6002 21.4278C16.1913 23.7144 15.8854 28.0878 18.9342 30.7395C20.3161 31.9353 22.0796 32.5984 23.9071 32.6092C24.8493 32.6364 25.7472 32.777 26.5292 33.3493C27.6219 34.1534 27.6194 35.2807 26.544 36.1119C24.9899 37.3132 21.5859 37.0986 20.9495 34.7602L16.9017 34.7824Z" fill="#487BDE" fill-opacity="0.2"/>
</g>
<defs>
<clipPath id="clip0_1_724">
<rect width="48.4185" height="56.8497" fill="white"/>
</clipPath>
</defs>
</svg>
