<svg width="52" height="51" viewBox="0 0 52 51" fill="none" xmlns="http://www.w3.org/2000/svg">
<g id="Frame" clip-path="url(#clip0_1_727)">
<path id="Vector" d="M42.1314 48.6646C40.8394 48.379 39.8005 48.8671 38.8629 49.7054C38.4982 50.0054 38.1169 50.2846 37.7208 50.5418C36.8885 51.1351 36.2729 51.1493 35.4527 50.5519C34.6852 50.0011 33.9319 49.4321 33.1543 48.8995C32.9492 48.7623 32.7102 48.6845 32.4637 48.6747C31.52 48.6504 30.5743 48.6747 29.6286 48.6625C28.6161 48.6504 28.126 48.2919 27.8061 47.3179C27.5185 46.4552 27.2613 45.5824 26.9454 44.7319C26.8331 44.4435 26.6466 44.1899 26.4047 43.9968C25.6757 43.4237 24.9082 42.9012 24.163 42.3484C23.4178 41.7955 23.2233 41.19 23.5008 40.3112C23.7944 39.3796 24.1083 38.4582 24.3959 37.5226C24.4586 37.3022 24.4586 37.0687 24.3959 36.8483C24.1184 35.9309 23.8045 35.0257 23.5109 34.1084C23.2173 33.191 23.4157 32.5774 24.2096 31.9942C24.8879 31.494 25.5562 30.9817 26.2609 30.5179C26.6563 30.2615 26.9387 29.8639 27.0507 29.4062C27.2877 28.582 27.5691 27.7699 27.8445 26.9579C28.1341 26.0972 28.6384 25.7307 29.5355 25.7226C30.4812 25.7226 31.4269 25.7428 32.3706 25.7084C32.6807 25.6904 32.9804 25.5905 33.2393 25.4188C33.9967 24.9126 34.7176 24.3577 35.4669 23.8251C36.2891 23.2318 36.9047 23.2338 37.7329 23.8251C38.4863 24.3678 39.2234 24.9308 39.9909 25.4452C40.2236 25.5971 40.4929 25.6838 40.7705 25.6963C41.7304 25.7266 42.6923 25.6963 43.6542 25.7104C44.5169 25.7104 45.0373 26.0912 45.3188 26.9255C45.6226 27.8185 45.8818 28.7258 46.2099 29.6087C46.329 29.9122 46.5251 30.1795 46.7789 30.3843C47.435 30.9128 48.1337 31.3968 48.8141 31.8828C49.8125 32.6119 49.9765 33.1262 49.5897 34.3129C49.3163 35.1452 49.0328 35.9755 48.7797 36.8139C48.7148 37.0519 48.7148 37.3029 48.7797 37.5409C49.051 38.4602 49.3649 39.3634 49.6545 40.2828C49.9441 41.2022 49.7436 41.7976 48.9802 42.3585C48.2167 42.9194 47.4674 43.4318 46.7404 44.0069C46.5001 44.2026 46.3157 44.4583 46.2058 44.7481C45.8919 45.6006 45.6408 46.4755 45.3533 47.3402C45.0454 48.2737 44.5432 48.6362 43.555 48.6544C43.0771 48.6706 42.6052 48.6646 42.1314 48.6646ZM33.5492 42.8992L43.1824 33.27L41.0014 31.1032L31.3722 40.7324L33.5492 42.8992ZM39.9038 39.5842C39.6933 39.5799 39.484 39.6175 39.2882 39.6948C39.0923 39.7722 38.9138 39.8877 38.763 40.0347C38.6123 40.1817 38.4923 40.3572 38.41 40.5511C38.3277 40.7449 38.2848 40.9531 38.2838 41.1637C38.2805 41.3785 38.3201 41.5918 38.4 41.7911C38.48 41.9905 38.5988 42.172 38.7496 42.325C38.9003 42.478 39.08 42.5995 39.2782 42.6825C39.4763 42.7654 39.689 42.8081 39.9038 42.8081C40.3312 42.8008 40.739 42.6278 41.0413 42.3255C41.3435 42.0233 41.5166 41.6154 41.5239 41.188C41.5196 40.7612 41.347 40.3532 41.0437 40.0529C40.7403 39.7526 40.3307 39.5841 39.9038 39.5842ZM31.682 33.1667C31.6772 33.3773 31.7141 33.5868 31.7906 33.783C31.8671 33.9792 31.9817 34.1584 32.1278 34.3101C32.2739 34.4619 32.4486 34.5832 32.6418 34.6671C32.835 34.751 33.0429 34.7958 33.2535 34.7989C33.4646 34.8017 33.6743 34.7629 33.8704 34.6847C34.0666 34.6065 34.2454 34.4904 34.3967 34.343C34.548 34.1957 34.6687 34.02 34.7521 33.826C34.8355 33.632 34.8799 33.4234 34.8827 33.2123C34.8854 33.0011 34.8466 32.7915 34.7684 32.5954C34.6902 32.3992 34.5741 32.2204 34.4268 32.0691C34.2794 31.9178 34.1037 31.797 33.9097 31.7137C33.7157 31.6303 33.5072 31.5859 33.296 31.5831C33.0847 31.5774 32.8744 31.6142 32.6775 31.6913C32.4807 31.7684 32.3013 31.8842 32.1501 32.0319C31.9988 32.1796 31.8787 32.3561 31.7969 32.551C31.7151 32.746 31.6733 32.9553 31.6739 33.1667H31.682Z" fill="#487BDE" fill-opacity="0.2"/>
<path id="Vector_2" d="M4.68604 9.43495C5.49606 7.67314 6.7921 6.74566 8.57214 6.40747C16.1202 4.97103 23.6663 3.52918 31.2103 2.08194C34.7015 1.41569 38.1907 0.741344 41.686 0.0892728C42.317 -0.0389347 42.9672 -0.0395276 43.5984 0.0875362C44.2296 0.2146 44.829 0.46675 45.3612 0.829112C45.8935 1.19148 46.3477 1.65672 46.6973 2.19742C47.0469 2.73813 47.2847 3.34334 47.3967 3.97739C48.528 9.81633 49.6465 15.6573 50.7522 21.5003C51.06 23.1062 51.3597 24.712 51.6736 26.3159C52.028 28.1182 51.3273 29.5357 50.0839 30.8075C49.3245 30.2567 48.5854 29.7301 47.8564 29.1874C47.7375 29.0718 47.6533 28.9252 47.6134 28.7642C47.338 27.9542 47.1395 27.1036 46.7871 26.3341C46.5063 25.7682 46.1379 25.2502 45.6956 24.7991C45.5913 24.7076 45.5082 24.5944 45.4523 24.4674C45.3963 24.3404 45.3688 24.2028 45.3716 24.064C45.3797 20.909 45.3797 17.7539 45.3716 14.5989C45.3716 11.4884 43.3162 9.43495 40.2037 9.43495H4.68604Z" fill="#487BDE" fill-opacity="0.2"/>
<path id="Vector_3" d="M43.7515 19.1287H0.0849971C0.0667715 19.1105 0.0262684 19.0862 0.0262684 19.0598C0.0262684 17.373 -0.0344835 15.6841 0.0262684 13.9972C0.0930956 12.3954 1.49444 11.1175 3.09829 11.0527C3.26638 11.0527 3.43648 11.0527 3.60456 11.0527H40.157C42.4575 11.0527 43.7515 12.3528 43.7515 14.6655C43.7515 15.9817 43.7515 17.298 43.7515 18.6143V19.1287Z" fill="#487BDE" fill-opacity="0.2"/>
<path id="Vector_4" d="M22.9135 43.4559H3.57007C1.3425 43.4559 0.0100098 42.1335 0.0100098 39.9059C0.0100098 35.8922 0.0100098 31.8772 0.0100098 27.8608V27.2837H26.028C25.8458 27.8527 25.6797 28.4177 25.4772 28.9665C25.3959 29.1126 25.2771 29.2342 25.133 29.3189C24.4708 29.811 23.7964 30.2889 23.1322 30.781C22.5586 31.1789 22.1307 31.7533 21.9136 32.4167C21.6965 33.0802 21.702 33.7964 21.9293 34.4565C22.1521 35.1794 22.3708 35.9084 22.6361 36.6152C22.7857 36.9903 22.782 37.4092 22.6259 37.7816C22.4234 38.3324 22.2817 38.9096 22.0731 39.4604C21.5182 40.9225 21.6782 42.2287 22.9135 43.4559ZM4.89042 35.3171H14.5439V32.1418H4.89447L4.89042 35.3171Z" fill="#487BDE" fill-opacity="0.2"/>
</g>
<defs>
<clipPath id="clip0_1_727">
<rect width="51.7586" height="50.9891" fill="white"/>
</clipPath>
</defs>
</svg>
