<svg width="59" height="59" viewBox="0 0 59 59" fill="none" xmlns="http://www.w3.org/2000/svg">
<g id="Frame" clip-path="url(#clip0_1_720)">
<path id="Vector" d="M25.6933 27.3779C25.6933 26.4096 25.6933 25.5787 25.6933 24.7477C25.6933 23.0148 24.9081 22.2296 23.1752 22.2296H19.5126C17.8484 22.2296 17.0449 23.024 17.0449 24.6699V39.1441C16.8343 39.1579 16.6535 39.1808 16.4726 39.1831C14.813 39.1831 13.1533 39.1831 11.4937 39.1831C8.74674 39.167 6.86049 37.2831 6.8582 34.5384C6.8582 29.1223 6.8582 23.7046 6.8582 18.2855V17.5529C6.14856 18.0588 5.54652 18.5121 4.92387 18.9264C4.4947 19.2327 3.99462 19.4248 3.47073 19.4845C2.94684 19.5441 2.41638 19.4695 1.92931 19.2675C1.44225 19.0655 1.01461 18.7429 0.686679 18.33C0.358746 17.9171 0.141315 17.4275 0.0548583 16.9074C-0.174056 15.5774 0.350158 14.529 1.42835 13.7438C4.37676 11.6072 7.32289 9.4669 10.2667 7.32273L19.2425 0.80325C20.719 -0.26807 21.9894 -0.284093 23.4385 0.775781C29.3903 5.09769 35.342 9.42264 41.2938 13.7507C42.4979 14.6251 42.9717 15.9025 42.6078 17.1981C42.4824 17.6748 42.2453 18.1148 41.916 18.4817C41.5868 18.8485 41.175 19.1317 40.7145 19.3078C40.2541 19.4839 39.7584 19.5477 39.2684 19.4942C38.7784 19.4406 38.3082 19.2711 37.8967 18.9997C37.2489 18.5785 36.6331 18.1023 35.8891 17.5689V22.9896C31.8969 23.0652 28.5639 24.5211 25.6933 27.3779Z" fill="#487BDE" fill-opacity="0.2"/>
<path id="Vector_2" d="M46.1355 43.9517L49.718 47.8067C50.7412 47.1611 51.0548 47.1909 51.8766 47.9852C53.9308 49.9768 55.9826 51.9698 58.0322 53.9644C58.8013 54.713 58.8059 55.2395 58.0619 56.0064C57.3752 56.7045 56.7113 57.4073 56.0315 58.1009C55.3516 58.7945 54.8022 58.7877 54.1109 58.1215C52.0277 56.1071 49.9469 54.0896 47.8684 52.069C47.0809 51.3045 47.0351 50.9634 47.5021 50.1805L43.9539 46.3805C40.9666 48.7727 37.6519 49.7707 33.9183 49.1549C30.9272 48.689 28.2259 47.101 26.3641 44.714C24.5326 42.4188 23.5857 39.5424 23.6956 36.6081C23.8055 33.6737 24.9648 30.8762 26.9629 28.7244C28.9609 26.5725 31.6648 25.2092 34.583 24.8824C37.5012 24.5555 40.4397 25.2869 42.8643 26.9434C47.8455 30.3153 50.2697 37.8763 46.1355 43.9517ZM35.9419 28.2802C34.2011 28.2798 32.4992 28.7956 31.0515 29.7623C29.6038 30.7291 28.4753 32.1035 27.8087 33.7116C27.1421 35.3197 26.9674 37.0894 27.3065 38.7969C27.6457 40.5043 28.4836 42.0729 29.7142 43.3042C30.9448 44.5354 32.513 45.3741 34.2202 45.7142C35.9275 46.0542 37.6973 45.8804 39.3058 45.2146C40.9143 44.5489 42.2892 43.4211 43.2567 41.9739C44.2243 40.5267 44.7409 38.8251 44.7414 37.0843C44.7426 35.9282 44.5158 34.7832 44.0741 33.7148C43.6324 32.6464 42.9843 31.6755 42.167 30.8578C41.3498 30.0401 40.3793 29.3916 39.3111 28.9493C38.2429 28.507 37.098 28.2796 35.9419 28.2802Z" fill="#487BDE" fill-opacity="0.2"/>
</g>
<defs>
<clipPath id="clip0_1_720">
<rect width="58.6159" height="58.6227" fill="white"/>
</clipPath>
</defs>
</svg>
