<svg width="41" height="40" viewBox="0 0 41 40" fill="none" xmlns="http://www.w3.org/2000/svg">
<g id="Frame" clip-path="url(#clip0_1_858)">
<path id="Vector" d="M32.7943 11.7823C34.4301 11.7562 36.0247 12.296 37.3082 13.3104C38.3967 14.1621 39.209 15.3167 39.643 16.6289C40.0769 17.9411 40.1132 19.3524 39.7471 20.6851C38.9815 23.3913 36.591 25.4537 33.8255 25.7818C33.451 25.8258 33.0744 25.8487 32.6974 25.8505C30.5756 25.8505 28.4538 25.8505 26.332 25.8505H25.8633V25.4084C25.8633 23.6647 25.8633 21.9194 25.8633 20.1758C25.8633 17.9712 24.3649 16.479 22.1588 16.4759C20.701 16.4759 19.2432 16.4759 17.7839 16.4759C15.6621 16.4759 14.1513 17.9977 14.1466 20.1242C14.1466 22.0116 14.1466 23.8991 14.1466 25.8177C14.0457 25.8338 13.944 25.8443 13.8419 25.849C12.3326 25.849 10.8217 25.863 9.31083 25.849C8.04569 25.83 6.79725 25.5571 5.63955 25.0466C4.48186 24.536 3.43848 23.7982 2.57131 22.8768C1.70414 21.9554 1.03083 20.8693 0.591329 19.6828C0.151826 18.4963 -0.0449218 17.2336 0.0127522 15.9697C0.237743 11.473 3.89073 7.62937 8.37805 7.17158C8.67337 7.12337 8.97274 7.10453 9.27177 7.11533C9.66706 7.15596 9.80924 7.00909 9.93893 6.6341C11.1373 3.14517 13.5138 0.88589 17.1511 0.171855C21.2135 -0.628114 25.2086 1.42181 27.1086 5.1326C27.3961 5.69508 27.5773 6.31536 27.8257 6.89815C27.8573 6.97435 27.9037 7.04353 27.9621 7.10173C28.0206 7.15992 28.09 7.20596 28.1663 7.2372C30.5584 7.81061 32.0959 9.26837 32.7412 11.6448C32.7566 11.6915 32.7743 11.7374 32.7943 11.7823Z" fill="#8C7C53" fill-opacity="0.5"/>
<path id="Vector_2" d="M23.5196 30.5394C24.3008 30.5394 25.0133 30.5394 25.7289 30.5394C26.2586 30.5394 26.6742 30.7222 26.9117 31.2066C27.1492 31.691 27.0179 32.1613 26.6726 32.5769C24.7841 34.8684 22.8962 37.1569 21.0088 39.4422C20.3916 40.1891 19.6151 40.1891 19.0026 39.4422C17.1131 37.1506 15.2246 34.8622 13.3372 32.5769C12.9919 32.1613 12.845 31.7175 13.0903 31.2097C13.3356 30.7019 13.7653 30.5254 14.3075 30.5348C15.0199 30.5457 15.7324 30.5348 16.4855 30.5348V30.0473C16.4855 26.7672 16.4855 23.4861 16.4855 20.2039C16.4855 19.2664 16.9292 18.818 17.8683 18.818H22.1243C23.0696 18.818 23.5165 19.2602 23.5165 20.1961C23.5165 23.4772 23.5165 26.7583 23.5165 30.0395L23.5196 30.5394Z" fill="#8C7C53" fill-opacity="0.5"/>
</g>
<defs>
<clipPath id="clip0_1_858">
<rect width="40.0016" height="40" fill="white" transform="translate(0.000244141)"/>
</clipPath>
</defs>
</svg>
