<svg width="39" height="39" viewBox="0 0 39 39" fill="none" xmlns="http://www.w3.org/2000/svg">
<g id="Frame" clip-path="url(#clip0_1_848)">
<path id="Vector" d="M33.2193 19.9254C33.2799 21.1174 32.67 21.947 31.6781 22.4257C30.614 22.9373 30.0303 23.6866 29.7516 24.831C29.4073 26.2525 28.399 26.9788 26.9332 26.9624C25.8888 26.9525 25.1412 27.3526 24.4739 28.1478C23.2901 29.5414 22.4097 29.5676 21.0308 29.0528C20.9915 29.041 20.9531 29.0263 20.9161 29.0085C19.9569 28.4527 19.0371 28.556 18.0337 28.9954C16.5581 29.6512 15.5596 29.3971 14.5136 28.1199C13.8742 27.3378 13.1413 26.9493 12.1232 26.9624C10.6082 26.9821 9.59168 26.2115 9.24574 24.7375C8.99489 23.6669 8.44728 22.957 7.44223 22.4815C6.11419 21.8503 5.57479 20.737 5.89286 19.3057C6.13387 18.2187 5.92893 17.3382 5.23704 16.4512C4.25331 15.1871 4.26642 14.1362 5.23704 12.859C5.89286 11.9867 6.05681 11.1358 5.85679 10.0717C5.58462 8.59614 5.88466 7.70586 7.24877 6.97626C8.33579 6.39586 8.97193 5.6433 9.26541 4.44151C9.59332 3.08888 10.6197 2.36912 12.0182 2.39044C12.5076 2.41941 12.9963 2.32286 13.4379 2.10995C13.8795 1.89704 14.2594 1.57483 14.5415 1.17389C15.4777 -0.0426569 16.7401 -0.32302 18.1157 0.354114C19.0781 0.832863 19.9471 0.808271 20.9226 0.365593C22.3818 -0.290228 23.4295 -0.0459356 24.4542 1.20504C24.7407 1.58375 25.1131 1.889 25.5407 2.09566C25.9682 2.30231 26.4388 2.40447 26.9135 2.39372C28.5105 2.42651 29.2778 3.06102 29.7549 4.56284C29.8041 4.7186 29.85 4.87599 29.8844 5.03503C29.9583 5.39117 30.1157 5.72466 30.3438 6.008C30.5718 6.29135 30.8639 6.51645 31.196 6.66474C31.49 6.80723 31.7728 6.97165 32.0421 7.15661C33.0094 7.83374 33.3094 8.78633 33.1438 9.91926C33.1192 10.0832 33.0865 10.2472 33.0487 10.3996C32.9435 10.7838 32.9364 11.1882 33.0281 11.5757C33.1197 11.9633 33.3072 12.3217 33.5734 12.618C33.6259 12.6803 33.68 12.7426 33.7275 12.8098C34.6817 14.1591 34.7424 15.1986 33.7275 16.5185C33.0815 17.3628 32.8487 18.2121 33.134 19.2254C33.1814 19.456 33.2099 19.6901 33.2193 19.9254ZM19.5126 4.18574C16.7333 4.18095 14.0657 5.27896 12.0951 7.23882C10.1245 9.19867 9.01186 11.8603 9.00145 14.6395C8.98833 20.4288 13.6742 25.1638 19.4339 25.1638C20.8119 25.169 22.1774 24.9027 23.4525 24.3801C24.7275 23.8576 25.8872 23.089 26.8652 22.1183C27.8432 21.1475 28.6205 19.9937 29.1526 18.7226C29.6847 17.4515 29.9612 16.088 29.9664 14.71C29.9716 13.332 29.7053 11.9665 29.1827 10.6915C28.6601 9.41642 27.8916 8.25677 26.9208 7.27874C25.9501 6.3007 24.7963 5.52345 23.5252 4.99135C22.254 4.45925 20.8906 4.18272 19.5126 4.17755V4.18574Z" fill="#8C7C53" fill-opacity="0.5"/>
<path id="Vector_2" d="M23.8575 30.3563C24.4379 29.8366 25.0265 29.3873 25.5118 28.8463C25.9135 28.397 26.3545 28.2396 26.93 28.1904C27.5396 28.1533 28.1413 28.0336 28.7187 27.8347C30.0451 27.3526 30.6862 26.2574 31.0584 24.9753C31.1879 24.5359 31.2518 24.0653 31.7617 23.8489C31.9519 23.7686 32.0651 23.7522 32.2208 23.9096C34.3817 26.0738 36.5454 28.2347 38.7118 30.3924C38.9249 30.6039 39.0725 30.8432 38.9659 31.1597C38.8594 31.4761 38.6085 31.6089 38.2839 31.6614C36.7509 31.9122 35.2196 32.1844 33.6849 32.4238C33.3947 32.4697 33.3111 32.6008 33.2701 32.8615C33.0258 34.3961 32.7783 35.9308 32.4995 37.4523C32.4569 37.6818 32.2503 37.99 32.0519 38.054C31.9232 38.0747 31.7914 38.066 31.6664 38.0285C31.5415 37.991 31.4267 37.9257 31.3305 37.8376C28.8302 35.3569 26.3512 32.855 23.8673 30.3579C23.8493 30.353 23.8394 30.3251 23.8575 30.3563Z" fill="#8C7C53" fill-opacity="0.5"/>
<path id="Vector_3" d="M15.1121 30.4104C14.6202 30.9023 14.107 31.4236 13.5857 31.9434C11.6608 33.8638 9.73435 35.781 7.80623 37.6949C7.67953 37.8371 7.52568 37.9525 7.35372 38.0343C6.91596 38.1983 6.57001 37.9736 6.48148 37.4588C6.30277 36.4243 6.13717 35.3864 5.96666 34.3437C5.87976 33.819 5.78467 33.2944 5.71089 32.7681C5.70709 32.6673 5.66458 32.5719 5.59221 32.5016C5.51983 32.4314 5.42317 32.3917 5.32231 32.391C3.79917 32.1483 2.27931 31.8991 0.759446 31.6417C0.431536 31.5892 0.141335 31.4974 0.0314849 31.14C-0.078365 30.7826 0.110183 30.5727 0.333162 30.3514C2.43507 28.2626 4.53588 26.1722 6.6356 24.0801C6.99302 23.7243 7.46357 23.8145 7.67179 24.2965C7.77229 24.5497 7.85555 24.8093 7.921 25.0737C8.46697 27.0788 9.91634 28.2396 11.9936 28.2708C12.283 28.2638 12.5701 28.3231 12.8329 28.4442C13.0958 28.5652 13.3275 28.7448 13.5102 28.9692C13.9726 29.4906 14.553 29.9185 15.1121 30.4104Z" fill="#8C7C53" fill-opacity="0.5"/>
<path id="Vector_4" d="M19.4846 5.49743C20.6964 5.4961 21.8965 5.73468 23.0157 6.1994C24.1348 6.66413 25.1509 7.3458 26.0054 8.20512C26.8598 9.06444 27.5357 10.0844 27.994 11.2062C28.4524 12.328 28.6841 13.5294 28.6759 14.7412C28.6612 19.7451 24.5213 23.8702 19.5239 23.8588C18.3182 23.8613 17.1238 23.6264 16.0088 23.1674C14.8939 22.7084 13.8803 22.0342 13.0259 21.1835C12.1715 20.3327 11.493 19.322 11.0292 18.2091C10.5654 17.0961 10.3254 15.9027 10.3228 14.6969C10.3202 13.4912 10.5551 12.2968 11.0141 11.1819C11.4732 10.0669 12.1473 9.0533 12.9981 8.1989C14.7162 6.47334 17.0495 5.50101 19.4846 5.49579V5.49743ZM16.2055 18.8303C16.1842 19.4861 16.6564 19.791 17.2056 19.5238C17.8614 19.1959 18.5173 18.868 19.1731 18.5122C19.2672 18.4492 19.3779 18.4156 19.4911 18.4156C19.6044 18.4156 19.7151 18.4492 19.8092 18.5122C20.4142 18.8549 21.0389 19.168 21.6521 19.4959C21.9439 19.6599 22.2325 19.75 22.5309 19.5254C22.8293 19.3008 22.8014 18.986 22.7457 18.6679C22.6227 17.9695 22.485 17.2727 22.3932 16.571C22.3806 16.3788 22.4449 16.1895 22.5719 16.0447C23.0637 15.5298 23.5785 15.0445 24.0901 14.551C24.318 14.3313 24.4934 14.092 24.3737 13.7575C24.254 13.423 23.9688 13.346 23.6572 13.3033C22.9818 13.2115 22.3079 13.105 21.6308 13.023C21.5043 13.0187 21.382 12.9767 21.2795 12.9026C21.177 12.8284 21.0989 12.7253 21.0553 12.6065C20.7749 11.9704 20.4503 11.3539 20.1519 10.726C20.0207 10.4489 19.8453 10.2341 19.5125 10.2341C19.1796 10.2341 18.9747 10.439 18.8353 10.726C18.5271 11.3637 18.1975 11.9917 17.9008 12.636C17.862 12.7424 17.7925 12.8348 17.7011 12.9016C17.6098 12.9684 17.5007 13.0067 17.3876 13.0115C16.6842 13.0951 15.9759 13.1755 15.2841 13.3214C15.0155 13.3845 14.7793 13.5437 14.62 13.769C14.4446 14.051 14.6282 14.3346 14.8643 14.5609C15.389 15.0527 15.9136 15.5577 16.4121 16.0824C16.5333 16.229 16.5922 16.4174 16.576 16.607C16.4744 17.3711 16.3285 18.1351 16.2153 18.8303H16.2055Z" fill="#8C7C53" fill-opacity="0.5"/>
<path id="Vector_5" d="M17.7352 17.794C17.8204 17.2645 17.8663 16.8185 17.9696 16.3873C18.0172 16.2165 18.0139 16.0355 17.96 15.8665C17.9061 15.6976 17.804 15.5481 17.6663 15.4364C17.3384 15.1298 17.0482 14.792 16.7104 14.4346C17.2023 14.3559 17.6696 14.2706 18.1483 14.2083C18.2978 14.1955 18.4408 14.1413 18.5613 14.0519C18.6818 13.9624 18.7749 13.8411 18.8304 13.7017C19.0271 13.2836 19.2386 12.8721 19.4862 12.3655C19.6936 12.7301 19.8813 13.1055 20.0486 13.4902C20.2404 14.0083 20.5995 14.2247 21.129 14.2641C21.5078 14.2903 21.8816 14.369 22.2767 14.428C21.9406 14.7855 21.6406 15.1298 21.311 15.4446C21.174 15.5566 21.0728 15.7065 21.02 15.8755C20.9673 16.0446 20.9653 16.2253 21.0143 16.3955C21.1176 16.8267 21.1618 17.2727 21.2454 17.7908C20.7536 17.5333 20.3273 17.3202 19.9109 17.0939C19.7824 17.0158 19.6349 16.9744 19.4846 16.9744C19.3342 16.9744 19.1867 17.0158 19.0583 17.0939C18.6517 17.3235 18.2303 17.535 17.7352 17.794Z" fill="#8C7C53" fill-opacity="0.5"/>
</g>
<defs>
<clipPath id="clip0_1_848">
<rect width="39" height="38.0851" fill="white" transform="translate(0.000244141)"/>
</clipPath>
</defs>
</svg>
