<svg width="25" height="25" viewBox="0 0 25 25" fill="none" xmlns="http://www.w3.org/2000/svg">
<circle cx="12.0556" cy="12.0556" r="11.7056" stroke="#212225" stroke-width="0.7"/>
<g clip-path="url(#clip0_1_738)">
<path d="M17.9828 12.4584C17.9828 13.2833 18.0242 14.1117 17.9729 14.9337C17.9016 16.0666 17.4332 16.992 16.3687 17.5246C15.8543 17.7745 15.2888 17.9014 14.7169 17.8953C13.2401 17.9053 11.7634 17.9053 10.2866 17.8953C9.75086 17.8987 9.22052 17.7879 8.73098 17.5702C7.72858 17.1132 7.22311 16.2919 7.05913 15.2339C7.02252 14.9813 7.00512 14.7262 7.00708 14.471C7.00209 13.0936 6.99211 11.7155 7.01279 10.3359C7.01607 9.92601 7.07434 9.51838 7.18603 9.12394C7.5425 7.91194 8.40231 7.27029 9.61503 7.06567C9.90754 7.01804 10.2034 6.99419 10.4998 6.99438C11.8881 6.9882 13.276 6.9882 14.6634 6.99438C15.1567 6.98989 15.6465 7.07741 16.1078 7.25247C17.2121 7.68023 17.7739 8.53576 17.9458 9.67647C17.9805 9.92926 17.9974 10.1842 17.9964 10.4393C18.0035 11.1102 17.9964 11.7818 17.9964 12.4527L17.9828 12.4584ZM12.4975 16.8679V16.8865C12.6215 16.8865 12.7463 16.8865 12.871 16.8865C13.6118 16.8708 14.3547 16.8822 15.0926 16.8287C15.9331 16.7674 16.5505 16.3396 16.825 15.5205C16.9269 15.2048 16.9795 14.8754 16.9812 14.5437C16.9976 13.1842 16.9897 11.8239 16.9861 10.4643C16.986 10.2627 16.9741 10.0613 16.9505 9.86113C16.8428 8.96567 16.281 8.32616 15.407 8.12297C15.1642 8.06833 14.9165 8.03918 14.6677 8.036C13.8021 8.02031 12.9366 8.01176 12.0711 8.01675C11.3475 8.02102 10.6224 8.01674 9.90235 8.07306C9.07034 8.13723 8.4565 8.5593 8.18273 9.37205C8.08032 9.68131 8.02622 10.0045 8.02232 10.3302C8.00521 11.7019 8.01376 13.0736 8.01661 14.4453C8.01383 14.6411 8.02646 14.8369 8.05439 15.0307C8.1813 15.8228 8.54918 16.4466 9.35053 16.704C9.66727 16.8013 9.99597 16.8544 10.3273 16.8615C11.0502 16.8836 11.7738 16.8679 12.4975 16.8679Z" fill="#212225"/>
<path d="M9.60949 12.4364C9.61316 11.8647 9.78615 11.3069 10.1066 10.8335C10.4271 10.3601 10.8807 9.99223 11.4101 9.77644C11.9395 9.56066 12.521 9.5066 13.0811 9.62111C13.6413 9.73561 14.1549 10.0135 14.5571 10.4198C14.9594 10.826 15.2322 11.3423 15.3412 11.9035C15.4502 12.4648 15.3904 13.0457 15.1694 13.5729C14.9484 14.1002 14.5762 14.5502 14.0996 14.866C13.6231 15.1818 13.0636 15.3493 12.4919 15.3473C12.1111 15.3469 11.7341 15.2712 11.3827 15.1244C11.0313 14.9777 10.7124 14.7628 10.4444 14.4922C10.1765 14.2216 9.96474 13.9006 9.82144 13.5477C9.67814 13.1949 9.6061 12.8172 9.60949 12.4364ZM14.3691 12.4549C14.3694 12.0857 14.2602 11.7247 14.0554 11.4175C13.8505 11.1103 13.5592 10.8708 13.2183 10.7292C12.8773 10.5875 12.502 10.5501 12.1398 10.6217C11.7776 10.6933 11.4448 10.8707 11.1834 11.1314C10.9219 11.3921 10.7437 11.7245 10.6711 12.0865C10.5986 12.4485 10.6349 12.8239 10.7757 13.1652C10.9164 13.5066 11.1552 13.7985 11.4618 14.0042C11.7684 14.2098 12.1291 14.32 12.4983 14.3207C12.7438 14.3214 12.987 14.2737 13.214 14.1803C13.441 14.0868 13.6473 13.9495 13.8211 13.7762C13.9949 13.6028 14.1327 13.3969 14.2268 13.1702C14.3208 12.9434 14.3692 12.7004 14.3691 12.4549Z" fill="#212225"/>
<path d="M15.4135 10.1443C15.2607 10.1443 15.1142 10.0836 15.0061 9.97558C14.8981 9.86755 14.8374 9.72103 14.8374 9.56825C14.8374 9.41547 14.8981 9.26894 15.0061 9.16091C15.1142 9.05288 15.2607 8.99219 15.4135 8.99219C15.5662 8.99219 15.7128 9.05288 15.8208 9.16091C15.9288 9.26894 15.9895 9.41547 15.9895 9.56825C15.9895 9.72103 15.9288 9.86755 15.8208 9.97558C15.7128 10.0836 15.5662 10.1443 15.4135 10.1443Z" fill="#212225"/>
</g>
<defs>
<clipPath id="clip0_1_738">
<rect width="11" height="10.9038" fill="white" transform="translate(7 7)"/>
</clipPath>
</defs>
</svg>
