<svg width="160" height="54" viewBox="0 0 160 54" fill="none" xmlns="http://www.w3.org/2000/svg">
<g id="Frame" clip-path="url(#clip0_1_660)">
<g id="Group 3653">
<path id="Vector" d="M25.5627 3.32999L14.0399 29.6096L7.20047 9.98998L0 12.6001L13.323 49.8598L34.9229 0L25.5627 3.32999ZM3.42007 14.1299L5.66984 12.9596L13.7696 36.5398L27.269 5.48968L30.5089 4.41021L13.7704 42.8387L3.42007 14.1299Z" fill="url(#paint0_linear_1_660)"/>
<path id="Vector_2" d="M9.36353 9.3601L14.4505 23.6248L22.5692 4.41016L9.36353 9.3601ZM12.5134 10.9801L17.9137 8.81961L14.583 16.5598L12.5134 10.9801Z" fill="url(#paint1_linear_1_660)"/>
<path id="Vector_3" d="M14.3093 53.4594L17.6393 52.2899L38.6094 3.77979L35.2794 5.21958L14.3093 53.4594Z" fill="url(#paint2_linear_1_660)"/>
<path id="Vector_4" d="M38.8188 8.81973L42.2094 7.82959L25.078 47.0249L21.7791 48.2391L38.8188 8.81973Z" fill="url(#paint3_linear_1_660)"/>
<path id="Vector_5" d="M49.7014 18.6515C49.281 17.677 48.8861 17.0091 48.5167 16.6478C48.1473 16.2864 47.6174 16.0722 46.927 16.0051V15.5009C47.0118 15.5009 47.1329 15.4926 47.2926 15.4759C47.4558 15.4589 47.6198 15.4503 47.7839 15.4502C48.6333 15.452 49.4678 15.6734 50.2063 16.0929C50.9794 16.5218 51.6355 17.3747 52.1744 18.6515L56.4847 28.8103L57.9722 25.3569C58.6787 23.7269 60.0315 20.5086 62.0304 15.7023H63.2416L56.0071 32.5914H55.5529L49.7014 18.6515Z" fill="white"/>
</g>
<path id="Vector_6" d="M68.0911 31.6835C66.9067 30.9114 65.995 29.8516 65.3561 28.5042C64.7172 27.1568 64.3972 25.6622 64.3962 24.0206C64.3962 22.3744 64.7154 20.8788 65.3538 19.5339C65.9922 18.189 66.9039 17.1292 68.0888 16.3545C69.2738 15.5814 70.6477 15.1948 72.2106 15.1948C73.7736 15.1948 75.1472 15.5814 76.3317 16.3545C77.5161 17.1277 78.4278 18.1875 79.0667 19.5339C79.7056 20.8803 80.025 22.3759 80.025 24.0206C80.025 25.6678 79.7056 27.1636 79.0667 28.508C78.4278 29.8524 77.5161 30.9122 76.3317 31.6873C75.1467 32.46 73.773 32.8465 72.2106 32.847C70.6482 32.8475 69.275 32.4597 68.0911 31.6835ZM75.0486 30.8774C75.8464 30.2385 76.4556 29.3351 76.8759 28.1673C77.2963 26.9995 77.5065 25.6173 77.5065 24.0206C77.5065 22.4238 77.2963 21.0416 76.8759 19.8738C76.4556 18.706 75.8464 17.8029 75.0486 17.1645C74.2497 16.5256 73.3045 16.2062 72.2129 16.2062C71.1213 16.2062 70.1758 16.5256 69.3765 17.1645C68.5786 17.8034 67.9695 18.7065 67.5491 19.8738C67.1287 21.041 66.9188 22.4233 66.9193 24.0206C66.9193 25.6178 67.1292 27.0001 67.5491 28.1673C67.969 29.3346 68.5781 30.2379 69.3765 30.8774C70.1743 31.5162 71.1198 31.8354 72.2129 31.8349C73.306 31.8344 74.2512 31.5155 75.0486 30.8781V30.8774Z" fill="white"/>
<path id="Vector_7" d="M92.4415 31.7972C91.7778 31.2683 91.0426 30.3148 90.2356 28.9366L87.7148 24.6513H85.9503V32.3392H83.6793V18.7271C83.6793 17.8692 83.5617 17.2348 83.3266 16.824C83.0914 16.4132 82.6208 16.2073 81.9148 16.2063H81.4106V15.7021H87.9646C89.5609 15.7021 91.0103 16.0173 92.3128 16.6476C93.6153 17.2779 94.2666 18.4752 94.2666 20.2395C94.2666 22.4752 92.9222 23.9036 90.2333 24.5248L92.8828 28.9366C93.5045 29.9787 94.0632 30.7054 94.5588 31.1167C95.048 31.5261 95.6503 31.7767 96.2855 31.8351V32.3392C96.0787 32.4224 95.863 32.4816 95.6428 32.5156C95.3557 32.5671 95.0646 32.5924 94.773 32.5913C93.927 32.6068 93.1022 32.3259 92.4415 31.7972ZM89.5422 23.3909C90.1569 23.1377 90.6955 22.7296 91.1054 22.2062C91.5338 21.6677 91.7481 21.0117 91.7481 20.238C91.7481 19.4149 91.5338 18.7301 91.1054 18.1836C90.6968 17.6525 90.1585 17.2354 89.5422 16.9724C88.929 16.712 88.3621 16.5818 87.8413 16.5818C87.2025 16.5881 86.5669 16.6728 85.9488 16.8338V23.5135C86.5669 23.6746 87.2025 23.7592 87.8413 23.7656C88.36 23.7676 88.927 23.6427 89.5422 23.3909Z" fill="white"/>
<path id="Vector_8" d="M100.861 31.6834C99.6751 30.9113 98.7632 29.8515 98.1248 28.5041C97.4864 27.1566 97.1672 25.6608 97.1672 24.0166C97.1672 22.3704 97.4864 20.8749 98.1248 19.53C98.7632 18.1851 99.6751 17.1253 100.861 16.3506C102.045 15.5775 103.419 15.1909 104.982 15.1909C106.545 15.1909 107.918 15.5775 109.103 16.3506C110.288 17.1238 111.2 18.1835 111.838 19.53C112.477 20.8764 112.796 22.372 112.796 24.0166C112.796 25.6638 112.477 27.1597 111.838 28.5041C111.2 29.8485 110.288 30.9083 109.103 31.6834C107.919 32.4561 106.545 32.8426 104.982 32.8431C103.418 32.8436 102.045 32.4571 100.861 31.6834ZM107.817 30.8772C108.615 30.2383 109.225 29.335 109.645 28.1672C110.066 26.9994 110.276 25.6172 110.275 24.0204C110.275 22.4237 110.065 21.0414 109.645 19.8736C109.226 18.7059 108.616 17.8028 107.817 17.1644C107.019 16.5255 106.074 16.206 104.982 16.206C103.889 16.206 102.944 16.5255 102.146 17.1644C101.348 17.8033 100.738 18.7064 100.319 19.8736C99.8987 21.0409 99.6885 22.4232 99.688 24.0204C99.688 25.6177 99.8982 26.9999 100.319 28.1672C100.739 29.3345 101.348 30.2378 102.146 30.8772C102.944 31.5161 103.889 31.8353 104.982 31.8348C106.074 31.8343 107.019 31.5154 107.817 30.878V30.8772Z" fill="white"/>
<path id="Vector_9" d="M116.452 18.7271C116.452 17.8692 116.334 17.2348 116.098 16.824C115.863 16.4132 115.392 16.2073 114.687 16.2063H114.183V15.7021H120.737C122.568 15.7021 124.16 16.0049 125.514 16.6105C126.867 17.2161 127.544 18.3842 127.543 20.1146C127.543 20.9049 127.274 21.619 126.736 22.2569C126.198 22.8948 125.375 23.3995 124.266 23.7709C125.812 24.0232 126.892 24.4812 127.505 25.1448C128.119 25.8084 128.426 26.6949 128.425 27.8041C128.425 29.5023 127.757 30.6829 126.421 31.3461C125.086 32.0092 123.443 32.341 121.493 32.3415H116.452V18.7271ZM121.115 23.3909C121.786 23.3944 122.451 23.2615 123.069 23.0003C123.663 22.7543 124.181 22.3539 124.568 21.8406C124.955 21.3283 125.149 20.7106 125.148 19.9875C125.148 19.2305 124.921 18.5961 124.467 18.0844C124 17.5624 123.404 17.171 122.74 16.9489C122.056 16.7074 121.336 16.5838 120.61 16.5833C119.971 16.5896 119.336 16.6742 118.717 16.8354V23.3894L121.115 23.3909ZM124.657 30.5497C125.489 29.9441 125.905 29.0703 125.904 27.9283C125.904 26.7862 125.496 25.9124 124.682 25.3068C123.866 24.7012 122.677 24.3984 121.115 24.3984H118.72V31.1053C119.498 31.3364 120.304 31.4552 121.115 31.4581C122.644 31.4576 123.825 31.1548 124.657 30.5497Z" fill="white"/>
<path id="Vector_10" d="M132.13 18.7271C132.13 17.8692 132.013 17.2348 131.777 16.824C131.542 16.4132 131.072 16.2073 130.366 16.2063H129.862V15.7021H140.6C142.029 15.7021 142.743 16.3744 142.742 17.7188V19.6112H142.238C142.238 17.6784 141.188 16.712 139.088 16.712H134.399V23.266H141.205V24.2743H134.399V31.3324H138.808C139.968 31.3324 140.877 31.1225 141.533 30.7026C142.189 30.2828 142.71 29.5684 143.096 28.5596L143.6 28.686L142.717 31.0804C142.415 31.9211 141.784 32.3412 140.825 32.3407H132.13V18.7271Z" fill="white"/>
<path id="Vector_11" d="M146.373 18.6515C145.953 17.677 145.558 17.0091 145.188 16.6478C144.818 16.2864 144.289 16.0722 143.599 16.0051V15.5009C143.683 15.5009 143.805 15.4926 143.964 15.4759C144.128 15.4589 144.292 15.4503 144.456 15.4502C145.306 15.4518 146.14 15.6732 146.879 16.0929C147.652 16.5218 148.308 17.3747 148.847 18.6515L153.157 28.8103L154.645 25.3569C155.351 23.7269 156.704 20.5086 158.703 15.7023H159.914L152.679 32.5914H152.225L146.373 18.6515Z" fill="white"/>
<path id="Vector_12" d="M102.927 45.2836L101.22 42.8923C100.99 42.9256 100.758 42.9428 100.525 42.9438H98.4815V45.2836H97.9607V38.1309H100.525C102.324 38.1309 103.407 39.0302 103.407 40.5426C103.407 41.6781 102.794 42.4631 101.731 42.7803L103.52 45.2836H102.927ZM100.525 42.4828C102.058 42.4828 102.872 41.7674 102.872 40.5419C102.872 39.3049 102.054 38.6002 100.525 38.6002H98.4815V42.4828H100.525Z" fill="white"/>
<path id="Vector_13" d="M109.487 42.7396H104.895C104.946 44.0067 105.879 44.8652 107.154 44.8652C107.828 44.8652 108.451 44.6199 108.86 44.1188L109.157 44.4564C108.687 45.0287 107.951 45.3247 107.143 45.3247C105.528 45.3247 104.395 44.2005 104.395 42.6169C104.395 41.0333 105.488 39.9092 106.949 39.9092C108.411 39.9092 109.494 41.0129 109.494 42.5965C109.497 42.6374 109.487 42.6873 109.487 42.7396ZM104.909 42.3406H108.996C108.921 41.1862 108.088 40.3588 106.952 40.3588C105.817 40.3588 104.99 41.1733 104.909 42.3406Z" fill="white"/>
<path id="Vector_14" d="M114.606 41.9013V45.2836H114.115V44.3336C113.778 44.9467 113.124 45.3244 112.194 45.3244C110.998 45.3244 110.273 44.7113 110.273 43.8021C110.273 42.9944 110.784 42.3101 112.266 42.3101H114.095V41.8809C114.095 40.8893 113.553 40.3586 112.511 40.3586C111.836 40.3514 111.182 40.5914 110.672 41.0331L110.416 40.6652C110.946 40.1951 111.724 39.9082 112.551 39.9082C113.87 39.909 114.606 40.5834 114.606 41.9013ZM114.095 43.7098V42.7083H112.278C111.175 42.7083 110.786 43.1685 110.786 43.7817C110.786 44.4766 111.328 44.9058 112.268 44.9058C113.165 44.9058 113.788 44.4766 114.095 43.7098Z" fill="white"/>
<path id="Vector_15" d="M116.538 37.7017H117.049V45.2837H116.538V37.7017Z" fill="white"/>
<path id="Vector_16" d="M121.606 44.9469C121.34 45.202 120.911 45.3254 120.513 45.3254C119.572 45.3254 119.061 44.7736 119.061 43.8743V40.3921H118.077V39.9531H119.061V38.7881H119.572V39.9531H121.269V40.3921H119.572V43.8228C119.572 44.5041 119.909 44.8826 120.563 44.8826C120.867 44.8896 121.162 44.7838 121.391 44.5859L121.606 44.9469Z" fill="white"/>
<path id="Vector_17" d="M127.033 39.9502L124.295 46.0099C123.865 46.994 123.334 47.3074 122.629 47.3074C122.149 47.3074 121.699 47.1439 121.392 46.8274L121.648 46.4391C121.774 46.5757 121.927 46.6837 122.098 46.7559C122.269 46.8282 122.454 46.8629 122.639 46.8577C123.13 46.8577 123.488 46.6306 123.814 45.9077L124.101 45.2635L121.7 39.9502H122.242L124.378 44.7192L126.513 39.9502H127.033Z" fill="white"/>
<path id="Vector_18" d="M135.7 41.7381H136.2V44.4156C135.556 45.0287 134.626 45.3353 133.645 45.3353C131.489 45.3353 129.905 43.7918 129.905 41.7071C129.905 39.6223 131.489 38.0796 133.656 38.0796C134.687 38.0796 135.597 38.4066 136.229 39.0637L135.902 39.4111C135.279 38.798 134.533 38.5633 133.664 38.5633C131.804 38.5633 130.425 39.9123 130.425 41.7101C130.425 43.5079 131.804 44.8577 133.664 44.8577C134.421 44.8577 135.115 44.6737 135.698 44.2036L135.7 41.7381Z" fill="white"/>
<path id="Vector_19" d="M140.676 39.9092V40.4095C140.635 40.4095 140.594 40.3997 140.553 40.3997C139.368 40.3997 138.661 41.1862 138.661 42.5041V45.2838H138.15V39.9501H138.64V41.1151C138.97 40.3407 139.674 39.9092 140.676 39.9092Z" fill="white"/>
<path id="Vector_20" d="M141.279 42.6169C141.279 41.0333 142.414 39.9092 143.945 39.9092C145.477 39.9092 146.613 41.0333 146.613 42.6169C146.613 44.2005 145.478 45.3247 143.945 45.3247C142.413 45.3247 141.279 44.2013 141.279 42.6169ZM146.092 42.6169C146.092 41.2778 145.172 40.3687 143.945 40.3687C142.719 40.3687 141.799 41.277 141.799 42.6169C141.799 43.9568 142.719 44.8652 143.945 44.8652C145.172 44.8652 146.092 43.9553 146.092 42.6169Z" fill="white"/>
<path id="Vector_21" d="M152.693 39.9502V45.2839H152.206V44.1394C151.859 44.8858 151.134 45.3248 150.194 45.3248C148.831 45.3248 147.966 44.5587 147.966 43.0667V39.9502H148.477V43.0258C148.477 44.2317 149.12 44.8653 150.235 44.8653C151.44 44.8653 152.186 44.0576 152.186 42.7904V39.9502H152.693Z" fill="white"/>
<path id="Vector_22" d="M160.003 42.6169C160.003 44.221 158.868 45.3247 157.367 45.3247C156.427 45.3247 155.63 44.8652 155.201 44.0681V47.2663H154.69V39.9501H155.181V41.2066C155.599 40.3891 156.406 39.9092 157.367 39.9092C158.868 39.9092 160.003 41.0219 160.003 42.6169ZM159.493 42.6169C159.493 41.2778 158.563 40.3687 157.337 40.3687C156.11 40.3687 155.191 41.277 155.191 42.6169C155.191 43.9568 156.11 44.8652 157.337 44.8652C158.563 44.8652 159.489 43.9553 159.489 42.6169H159.493Z" fill="white"/>
<path id="Vector_23" d="M48.3418 42.5586H93.3069" stroke="white" stroke-width="0.5" stroke-miterlimit="10"/>
</g>
<defs>
<linearGradient id="paint0_linear_1_660" x1="0" y1="24.9299" x2="34.9199" y2="24.9299" gradientUnits="userSpaceOnUse">
<stop stop-color="#E7E3E0"/>
<stop offset="0.06" stop-color="#D8D4D3"/>
<stop offset="0.19" stop-color="#B2ADB0"/>
<stop offset="0.26" stop-color="#989398"/>
<stop offset="0.52" stop-color="#F8F8F8"/>
<stop offset="0.59" stop-color="#EAE9EA"/>
<stop offset="0.71" stop-color="#C5C2C4"/>
<stop offset="0.88" stop-color="#8C878A"/>
<stop offset="1" stop-color="#B2B2B2"/>
</linearGradient>
<linearGradient id="paint1_linear_1_660" x1="9.3605" y1="14.0171" x2="22.5662" y2="14.0171" gradientUnits="userSpaceOnUse">
<stop stop-color="#E7E3E0"/>
<stop offset="0.06" stop-color="#D8D4D3"/>
<stop offset="0.19" stop-color="#B2ADB0"/>
<stop offset="0.26" stop-color="#989398"/>
<stop offset="0.52" stop-color="#F8F8F8"/>
<stop offset="0.59" stop-color="#EAE9EA"/>
<stop offset="0.71" stop-color="#C5C2C4"/>
<stop offset="0.88" stop-color="#8C878A"/>
<stop offset="1" stop-color="#B2B2B2"/>
</linearGradient>
<linearGradient id="paint2_linear_1_660" x1="14.3093" y1="28.6196" x2="38.6094" y2="28.6196" gradientUnits="userSpaceOnUse">
<stop stop-color="#E7E3E0"/>
<stop offset="0.06" stop-color="#D8D4D3"/>
<stop offset="0.19" stop-color="#B2ADB0"/>
<stop offset="0.26" stop-color="#989398"/>
<stop offset="0.52" stop-color="#F8F8F8"/>
<stop offset="0.59" stop-color="#EAE9EA"/>
<stop offset="0.71" stop-color="#C5C2C4"/>
<stop offset="0.88" stop-color="#8C878A"/>
<stop offset="1" stop-color="#B2B2B2"/>
</linearGradient>
<linearGradient id="paint3_linear_1_660" x1="21.7791" y1="28.0344" x2="42.2094" y2="28.0344" gradientUnits="userSpaceOnUse">
<stop stop-color="#E7E3E0"/>
<stop offset="0.06" stop-color="#D8D4D3"/>
<stop offset="0.19" stop-color="#B2ADB0"/>
<stop offset="0.26" stop-color="#989398"/>
<stop offset="0.52" stop-color="#F8F8F8"/>
<stop offset="0.59" stop-color="#EAE9EA"/>
<stop offset="0.71" stop-color="#C5C2C4"/>
<stop offset="0.88" stop-color="#8C878A"/>
<stop offset="1" stop-color="#B2B2B2"/>
</linearGradient>
<clipPath id="clip0_1_660">
<rect width="160" height="53.4593" fill="white"/>
</clipPath>
</defs>
</svg>
