<svg width="233" height="78" viewBox="0 0 233 78" fill="none" xmlns="http://www.w3.org/2000/svg">
<g id="Frame" clip-path="url(#clip0_1_901)">
<g id="Group 3653">
<path id="Vector" d="M37.2257 4.8493L20.4455 43.119L10.4857 14.5479L0 18.3489L19.4016 72.6083L50.8564 0L37.2257 4.8493ZM4.98048 20.5767L8.25671 18.8725L20.052 53.2111L39.7104 7.99435L44.4286 6.42237L20.0531 62.3839L4.98048 20.5767Z" fill="url(#paint0_linear_1_901)"/>
<path id="Vector_2" d="M13.6357 13.6302L21.0436 34.4032L32.8665 6.42188L13.6357 13.6302ZM18.2227 15.9893L26.0869 12.8431L21.2365 24.1148L18.2227 15.9893Z" fill="url(#paint1_linear_1_901)"/>
<path id="Vector_3" d="M20.8379 77.8499L25.6872 76.1467L56.2249 5.50391L51.3756 7.6006L20.8379 77.8499Z" fill="url(#paint2_linear_1_901)"/>
<path id="Vector_4" d="M56.53 12.8433L61.4675 11.4014L36.5199 68.4796L31.7158 70.2478L56.53 12.8433Z" fill="url(#paint3_linear_1_901)"/>
<path id="Vector_5" d="M72.3776 27.1609C71.7654 25.7418 71.1903 24.7692 70.6524 24.243C70.1144 23.7168 69.3428 23.4048 68.3374 23.3071V22.5729C68.4609 22.5729 68.6373 22.5608 68.8699 22.5365C69.1075 22.5116 69.3463 22.4991 69.5853 22.499C70.8222 22.5016 72.0374 22.824 73.1128 23.4349C74.2387 24.0596 75.1941 25.3016 75.979 27.1609L82.2558 41.9547L84.422 36.9257C85.4509 34.5519 87.4208 29.8654 90.3318 22.8661H92.0955L81.5603 47.461H80.8988L72.3776 27.1609Z" fill="#333030"/>
</g>
<path id="Vector_6" d="M99.1577 46.1396C97.4329 45.0152 96.1053 43.4719 95.1749 41.5097C94.2445 39.5475 93.7786 37.3711 93.7771 34.9804C93.7771 32.5831 94.2419 30.4052 95.1716 28.4467C96.1013 26.4882 97.4289 24.9448 99.1544 23.8168C100.88 22.6909 102.881 22.1279 105.157 22.1279C107.433 22.1279 109.433 22.6909 111.158 23.8168C112.883 24.9426 114.211 26.4859 115.141 28.4467C116.071 30.4074 116.536 32.5853 116.536 34.9804C116.536 37.3791 116.071 39.5574 115.141 41.5152C114.211 43.473 112.883 45.0163 111.158 46.1451C109.433 47.2703 107.432 47.8332 105.157 47.834C102.882 47.8347 100.882 47.2699 99.1577 46.1396ZM109.29 44.9656C110.451 44.0352 111.338 42.7197 111.951 41.0191C112.563 39.3186 112.869 37.3057 112.869 34.9804C112.869 32.6551 112.563 30.6422 111.951 28.9416C111.338 27.2411 110.451 25.9259 109.29 24.9963C108.126 24.0659 106.75 23.6007 105.16 23.6007C103.571 23.6007 102.194 24.0659 101.03 24.9963C99.8677 25.9267 98.9806 27.2418 98.3684 28.9416C97.7563 30.6415 97.4505 32.6544 97.4513 34.9804C97.4513 37.3064 97.757 39.3193 98.3684 41.0191C98.9799 42.719 99.8669 44.0345 101.03 44.9656C102.191 45.896 103.568 46.3608 105.16 46.3601C106.752 46.3594 108.128 45.8949 109.29 44.9667V44.9656Z" fill="#333030"/>
<path id="Vector_7" d="M134.618 46.3047C133.651 45.5345 132.581 44.1459 131.406 42.1388L127.735 35.8984H125.165V47.094H121.858V27.2713C121.858 26.0219 121.687 25.0981 121.344 24.4999C121.002 23.9017 120.317 23.6019 119.288 23.6004H118.554V22.8662H128.098C130.423 22.8662 132.534 23.3252 134.43 24.2431C136.327 25.161 137.276 26.9045 137.276 29.4738C137.276 32.7294 135.318 34.8096 131.402 35.7143L135.261 42.1388C136.166 43.6564 136.979 44.7147 137.701 45.3136C138.414 45.9098 139.291 46.2747 140.216 46.3598V47.094C139.915 47.2151 139.6 47.3012 139.28 47.3508C138.862 47.4258 138.438 47.4627 138.013 47.461C136.781 47.4837 135.58 47.0746 134.618 46.3047ZM130.396 34.0629C131.291 33.6943 132.075 33.0999 132.672 32.3377C133.296 31.5536 133.608 30.5982 133.608 29.4716C133.608 28.2729 133.296 27.2757 132.672 26.4798C132.077 25.7064 131.293 25.099 130.396 24.716C129.503 24.3368 128.677 24.1472 127.919 24.1472C126.989 24.1564 126.063 24.2797 125.163 24.5142V34.2415C126.063 34.4761 126.989 34.5993 127.919 34.6086C128.674 34.6115 129.5 34.4296 130.396 34.0629Z" fill="#333030"/>
<path id="Vector_8" d="M146.878 46.1393C145.152 45.0149 143.824 43.4716 142.894 41.5093C141.965 39.5471 141.5 37.3689 141.5 34.9745C141.5 32.5773 141.965 30.3993 142.894 28.4408C143.824 26.4823 145.152 24.939 146.878 23.8109C148.603 22.685 150.604 22.1221 152.88 22.1221C155.156 22.1221 157.156 22.685 158.882 23.8109C160.608 24.9368 161.935 26.4801 162.865 28.4408C163.795 30.4016 164.259 32.5795 164.259 34.9745C164.259 37.3733 163.795 39.5515 162.865 41.5093C161.935 43.4671 160.608 45.0105 158.882 46.1393C157.157 47.2644 155.156 47.8274 152.88 47.8281C150.603 47.8288 148.603 47.2659 146.878 46.1393ZM157.009 44.9653C158.171 44.0349 159.058 42.7194 159.671 41.0188C160.284 39.3182 160.59 37.3053 160.589 34.98C160.589 32.6548 160.283 30.6419 159.671 28.9413C159.06 27.2407 158.173 25.9256 157.009 24.9959C155.847 24.0655 154.471 23.6003 152.88 23.6003C151.289 23.6003 149.912 24.0655 148.75 24.9959C147.588 25.9263 146.701 27.2414 146.089 28.9413C145.478 30.6411 145.172 32.6541 145.171 34.98C145.171 37.306 145.477 39.3189 146.089 41.0188C146.701 42.7186 147.588 44.0341 148.75 44.9653C149.912 45.8956 151.289 46.3605 152.88 46.3597C154.471 46.359 155.847 45.8945 157.009 44.9664V44.9653Z" fill="#333030"/>
<path id="Vector_9" d="M169.583 27.2713C169.583 26.0219 169.411 25.0981 169.068 24.4999C168.725 23.9017 168.04 23.6019 167.013 23.6004H166.279V22.8662H175.823C178.49 22.8662 180.808 23.3072 182.779 24.189C184.75 25.0709 185.735 26.7719 185.735 29.2919C185.735 30.4428 185.343 31.4827 184.56 32.4116C183.776 33.3405 182.577 34.0754 180.963 34.6163C183.214 34.9838 184.786 35.6507 185.68 36.6171C186.573 37.5835 187.02 38.8744 187.019 40.4897C187.019 42.9627 186.046 44.682 184.101 45.6477C182.156 46.6133 179.764 47.0965 176.925 47.0973H169.583V27.2713ZM176.373 34.0629C177.351 34.0681 178.319 33.8746 179.219 33.4941C180.084 33.1358 180.838 32.5528 181.402 31.8053C181.966 31.0593 182.248 30.1598 182.247 29.1067C182.247 28.0043 181.916 27.0805 181.255 26.3353C180.574 25.5752 179.708 25.0053 178.74 24.6818C177.744 24.3301 176.695 24.1501 175.638 24.1494C174.708 24.1585 173.782 24.2818 172.882 24.5164V34.0607L176.373 34.0629ZM181.531 44.488C182.743 43.6061 183.349 42.3336 183.348 40.6705C183.347 39.0074 182.754 37.7349 181.568 36.853C180.38 35.9711 178.649 35.5302 176.373 35.5302H172.887V45.2971C174.018 45.6336 175.193 45.8066 176.373 45.8108C178.6 45.8101 180.32 45.3691 181.531 44.488Z" fill="#333030"/>
<path id="Vector_10" d="M192.415 27.2713C192.415 26.0219 192.244 25.0981 191.901 24.4999C191.559 23.9017 190.873 23.6019 189.845 23.6004H189.111V22.8662H204.749C206.83 22.8662 207.87 23.8451 207.869 25.8029V28.5588H207.135C207.135 25.7441 205.605 24.3368 202.547 24.3368H195.719V33.881H205.63V35.3494H195.719V45.6278H202.139C203.829 45.6278 205.152 45.3221 206.107 44.7107C207.063 44.0992 207.821 43.0589 208.384 41.5899L209.118 41.774L207.833 45.2607C207.392 46.4851 206.473 47.0969 205.077 47.0962H192.415V27.2713Z" fill="#333030"/>
<path id="Vector_11" d="M213.156 27.1609C212.544 25.7418 211.969 24.7692 211.43 24.243C210.892 23.7168 210.12 23.4048 209.115 23.3071V22.5729C209.239 22.5729 209.416 22.5608 209.648 22.5365C209.886 22.5116 210.125 22.4991 210.364 22.499C211.601 22.5013 212.817 22.8237 213.892 23.4349C215.018 24.0596 215.973 25.3016 216.758 27.1609L223.035 41.9547L225.201 36.9257C226.23 34.5519 228.2 29.8654 231.111 22.8661H232.875L222.338 47.461H221.677L213.156 27.1609Z" fill="#333030"/>
<path id="Vector_12" d="M149.888 65.9446L147.402 62.4622C147.067 62.5107 146.729 62.5358 146.39 62.5371H143.414V65.9446H142.655V55.5283H146.39C149.009 55.5283 150.587 56.8379 150.587 59.0405C150.587 60.694 149.694 61.8371 148.146 62.299L150.751 65.9446H149.888ZM146.39 61.8658C148.622 61.8658 149.807 60.8241 149.807 59.0393C149.807 57.2381 148.617 56.2118 146.39 56.2118H143.414V61.8658H146.39Z" fill="#333030"/>
<path id="Vector_13" d="M159.44 62.2389H152.753C152.828 64.0843 154.186 65.3344 156.043 65.3344C157.025 65.3344 157.932 64.9772 158.528 64.2474L158.96 64.7391C158.275 65.5725 157.204 66.0035 156.027 66.0035C153.676 66.0035 152.025 64.3665 152.025 62.0603C152.025 59.7542 153.616 58.1172 155.745 58.1172C157.874 58.1172 159.45 59.7244 159.45 62.0306C159.455 62.0901 159.44 62.1629 159.44 62.2389ZM152.773 61.658H158.726C158.616 59.9769 157.403 58.772 155.75 58.772C154.096 58.772 152.892 59.9581 152.773 61.658Z" fill="#333030"/>
<path id="Vector_14" d="M166.895 61.0187V65.9441H166.181V64.5606C165.689 65.4535 164.736 66.0036 163.383 66.0036C161.641 66.0036 160.585 65.1107 160.585 63.7868C160.585 62.6105 161.329 61.614 163.487 61.614H166.151V60.989C166.151 59.5449 165.362 58.7721 163.844 58.7721C162.861 58.7617 161.909 59.111 161.166 59.7543L160.793 59.2186C161.565 58.534 162.698 58.1162 163.903 58.1162C165.823 58.1173 166.895 59.0995 166.895 61.0187ZM166.151 63.6523V62.1939H163.505C161.898 62.1939 161.332 62.8641 161.332 63.757C161.332 64.769 162.122 65.394 163.491 65.394C164.796 65.394 165.704 64.769 166.151 63.6523Z" fill="#333030"/>
<path id="Vector_15" d="M169.708 54.9033H170.452V65.9446H169.708V54.9033Z" fill="#333030"/>
<path id="Vector_16" d="M177.088 65.4542C176.701 65.8257 176.076 66.0054 175.497 66.0054C174.127 66.0054 173.383 65.2018 173.383 63.8921V58.8213H171.95V58.1819H173.383V56.4854H174.127V58.1819H176.598V58.8213H174.127V63.8172C174.127 64.8093 174.618 65.3605 175.57 65.3605C176.012 65.3707 176.442 65.2167 176.776 64.9284L177.088 65.4542Z" fill="#333030"/>
<path id="Vector_17" d="M184.992 58.1777L181.004 67.0022C180.379 68.4352 179.605 68.8916 178.579 68.8916C177.879 68.8916 177.224 68.6535 176.777 68.1927L177.15 67.6272C177.333 67.8261 177.556 67.9834 177.805 68.0886C178.054 68.1938 178.323 68.2443 178.593 68.2368C179.307 68.2368 179.829 67.9061 180.304 66.8533L180.722 65.9152L177.226 58.1777H178.015L181.125 65.1226L184.235 58.1777H184.992Z" fill="#333030"/>
<path id="Vector_18" d="M197.613 60.7808H198.341V64.6799C197.404 65.5728 196.05 66.0193 194.621 66.0193C191.481 66.0193 189.174 63.7716 189.174 60.7357C189.174 57.6997 191.481 55.4531 194.636 55.4531C196.139 55.4531 197.464 55.9293 198.384 56.8862L197.907 57.3922C197 56.4993 195.914 56.1575 194.648 56.1575C191.94 56.1575 189.931 58.1219 189.931 60.7401C189.931 63.3582 191.94 65.3237 194.648 65.3237C195.751 65.3237 196.762 65.0558 197.61 64.3713L197.613 60.7808Z" fill="#333030"/>
<path id="Vector_19" d="M204.859 58.1172V58.8458C204.8 58.8458 204.74 58.8315 204.681 58.8315C202.954 58.8315 201.925 59.9769 201.925 61.8961V65.944H201.181V58.1767H201.895V59.8732C202.375 58.7455 203.401 58.1172 204.859 58.1172Z" fill="#333030"/>
<path id="Vector_20" d="M205.737 62.0603C205.737 59.7542 207.391 58.1172 209.621 58.1172C211.851 58.1172 213.505 59.7542 213.505 62.0603C213.505 64.3665 211.852 66.0035 209.621 66.0035C207.39 66.0035 205.737 64.3676 205.737 62.0603ZM212.746 62.0603C212.746 60.1102 211.407 58.7863 209.621 58.7863C207.835 58.7863 206.496 60.1091 206.496 62.0603C206.496 64.0115 207.835 65.3344 209.621 65.3344C211.407 65.3344 212.746 64.0093 212.746 62.0603Z" fill="#333030"/>
<path id="Vector_21" d="M222.36 58.1777V65.945H221.651V64.2782C221.145 65.3652 220.089 66.0045 218.72 66.0045C216.735 66.0045 215.475 64.8889 215.475 62.7162V58.1777H216.219V62.6566C216.219 64.4127 217.156 65.3354 218.779 65.3354C220.535 65.3354 221.621 64.1592 221.621 62.3138V58.1777H222.36Z" fill="#333030"/>
<path id="Vector_22" d="M233.005 62.0603C233.005 64.3962 231.352 66.0035 229.166 66.0035C227.797 66.0035 226.636 65.3344 226.012 64.1736V68.8311H225.268V58.1767H225.982V60.0066C226.592 58.8161 227.767 58.1172 229.166 58.1172C231.352 58.1172 233.005 59.7377 233.005 62.0603ZM232.261 62.0603C232.261 60.1102 230.907 58.7863 229.121 58.7863C227.336 58.7863 225.996 60.1091 225.996 62.0603C225.996 64.0115 227.336 65.3344 229.121 65.3344C230.907 65.3344 232.255 64.0093 232.255 62.0603H232.261Z" fill="#333030"/>
<path id="Vector_23" d="M70.3979 61.9756H135.878" stroke="#333030" stroke-width="0.5" stroke-miterlimit="10"/>
</g>
<defs>
<linearGradient id="paint0_linear_1_901" x1="0" y1="36.3042" x2="50.852" y2="36.3042" gradientUnits="userSpaceOnUse">
<stop stop-color="#E7E3E0"/>
<stop offset="0.06" stop-color="#D8D4D3"/>
<stop offset="0.19" stop-color="#B2ADB0"/>
<stop offset="0.26" stop-color="#989398"/>
<stop offset="0.52" stop-color="#F8F8F8"/>
<stop offset="0.59" stop-color="#EAE9EA"/>
<stop offset="0.71" stop-color="#C5C2C4"/>
<stop offset="0.88" stop-color="#8C878A"/>
<stop offset="1" stop-color="#B2B2B2"/>
</linearGradient>
<linearGradient id="paint1_linear_1_901" x1="13.6313" y1="20.412" x2="32.8621" y2="20.412" gradientUnits="userSpaceOnUse">
<stop stop-color="#E7E3E0"/>
<stop offset="0.06" stop-color="#D8D4D3"/>
<stop offset="0.19" stop-color="#B2ADB0"/>
<stop offset="0.26" stop-color="#989398"/>
<stop offset="0.52" stop-color="#F8F8F8"/>
<stop offset="0.59" stop-color="#EAE9EA"/>
<stop offset="0.71" stop-color="#C5C2C4"/>
<stop offset="0.88" stop-color="#8C878A"/>
<stop offset="1" stop-color="#B2B2B2"/>
</linearGradient>
<linearGradient id="paint2_linear_1_901" x1="20.8379" y1="41.6769" x2="56.2249" y2="41.6769" gradientUnits="userSpaceOnUse">
<stop stop-color="#E7E3E0"/>
<stop offset="0.06" stop-color="#D8D4D3"/>
<stop offset="0.19" stop-color="#B2ADB0"/>
<stop offset="0.26" stop-color="#989398"/>
<stop offset="0.52" stop-color="#F8F8F8"/>
<stop offset="0.59" stop-color="#EAE9EA"/>
<stop offset="0.71" stop-color="#C5C2C4"/>
<stop offset="0.88" stop-color="#8C878A"/>
<stop offset="1" stop-color="#B2B2B2"/>
</linearGradient>
<linearGradient id="paint3_linear_1_901" x1="31.7158" y1="40.8246" x2="61.4675" y2="40.8246" gradientUnits="userSpaceOnUse">
<stop stop-color="#E7E3E0"/>
<stop offset="0.06" stop-color="#D8D4D3"/>
<stop offset="0.19" stop-color="#B2ADB0"/>
<stop offset="0.26" stop-color="#989398"/>
<stop offset="0.52" stop-color="#F8F8F8"/>
<stop offset="0.59" stop-color="#EAE9EA"/>
<stop offset="0.71" stop-color="#C5C2C4"/>
<stop offset="0.88" stop-color="#8C878A"/>
<stop offset="1" stop-color="#B2B2B2"/>
</linearGradient>
<clipPath id="clip0_1_901">
<rect width="233" height="77.85" fill="white"/>
</clipPath>
</defs>
</svg>
