<svg width="8" height="12" viewBox="0 0 8 12" fill="none" xmlns="http://www.w3.org/2000/svg">
<g id="Frame" clip-path="url(#clip0_1_1288)">
<path id="Vector" d="M7.99876 4.01128C7.99131 4.45309 7.90833 4.94543 7.66189 5.40871C6.58336 7.43591 5.505 9.46207 4.42681 11.4872C4.37755 11.5811 4.31346 11.6682 4.23651 11.7457C4.0964 11.8843 3.89864 11.8829 3.75803 11.7457C3.68539 11.6745 3.62494 11.594 3.57866 11.5069C2.49285 9.44657 1.40803 7.38612 0.324209 5.32553C-0.00272749 4.70619 -0.066823 4.06136 0.0608709 3.39686C0.342593 1.92922 1.55941 0.764771 3.19111 0.483944C4.80095 0.206694 6.14944 0.662815 7.17397 1.82548C7.7235 2.44705 7.96895 3.13839 7.99876 4.01128ZM1.74275 3.97819C1.70797 5.07332 2.71064 6.00077 3.96523 6.0352C5.18999 6.0674 6.22248 5.16276 6.25477 4.02961C6.28607 2.93134 5.29284 2.00122 4.0323 1.97752C2.80455 1.95247 1.77406 2.82313 1.74325 3.97819H1.74275Z" fill="white"/>
</g>
<defs>
<clipPath id="clip0_1_1288">
<rect width="8" height="11.4437" fill="white" transform="translate(0 0.405273)"/>
</clipPath>
</defs>
</svg>
