<svg width="38" height="37" viewBox="0 0 38 37" fill="none" xmlns="http://www.w3.org/2000/svg">
<circle cx="18.9146" cy="18.5" r="18.5" fill="#4C9DD9"/>
<g clip-path="url(#clip0_1_691)">
<path d="M19.6695 22.5062C19.5156 22.5711 19.3677 22.6489 19.2278 22.7386C18.5855 23.2309 17.9523 23.7352 17.3146 24.2351C16.9748 24.5058 16.6531 24.413 16.5217 24.0015C16.0761 22.6262 15.6325 21.2506 15.1907 19.8745C15.1771 19.8127 15.1465 19.7555 15.1021 19.709C15.0576 19.6625 15.001 19.6285 14.9381 19.6104C13.8054 19.2094 12.6726 18.8019 11.5399 18.3879C11.4233 18.3486 11.3196 18.28 11.2397 18.1892C11.2025 18.1389 11.1779 18.081 11.1678 18.02C11.1577 17.959 11.1624 17.8966 11.1814 17.8376C11.2005 17.7786 11.2335 17.7247 11.2778 17.68C11.3221 17.6354 11.3765 17.6012 11.4368 17.5802C11.6543 17.4863 11.8808 17.411 12.104 17.328C16.8841 15.5511 21.665 13.7741 26.4467 11.9971C26.546 11.9558 26.6535 11.9357 26.7616 11.9382C27.0267 11.9611 27.1807 12.1969 27.123 12.4676C26.9485 13.2847 26.7726 14.103 26.5951 14.9224C26.0174 17.5966 25.4405 20.2715 24.8643 22.9471C24.7204 23.6129 24.5777 24.2798 24.4304 24.9446C24.3455 25.3255 24.0204 25.4467 23.6908 25.2174C22.4991 24.3857 21.312 23.5507 20.1158 22.7234C19.9731 22.64 19.8239 22.5674 19.6695 22.5062ZM15.9746 19.582C15.9804 19.6424 15.991 19.7022 16.0063 19.761C16.2593 20.6218 16.5137 21.4827 16.7697 22.3435C16.7992 22.445 16.8479 22.5203 16.9702 22.5127C17.0926 22.5051 17.1379 22.4156 17.1526 22.3075C17.2058 21.9156 17.2659 21.5249 17.3112 21.1319C17.3498 20.7202 17.5529 20.3391 17.8776 20.0688C19.4339 18.6892 20.9801 17.2964 22.5297 15.9091L23.6035 14.9475C23.6692 14.8885 23.7485 14.8274 23.6692 14.7292C23.59 14.6309 23.5118 14.6964 23.4359 14.7434L23.3963 14.7663L18.0101 17.9622C17.4573 18.2897 16.9057 18.6171 16.3517 18.9446C16.236 19.0092 16.1401 19.1023 16.0739 19.2142C16.0076 19.3262 15.9733 19.4531 15.9746 19.582Z" fill="white"/>
</g>
<defs>
<clipPath id="clip0_1_691">
<rect width="15.9761" height="13.3971" fill="white" transform="translate(11.1565 11.9355)"/>
</clipPath>
</defs>
</svg>
