<svg width="17" height="18" viewBox="0 0 17 18" fill="none" xmlns="http://www.w3.org/2000/svg">
<g id="Frame" clip-path="url(#clip0_1_1258)">
<path id="Vector" d="M17.0001 11.5241C17.001 12.6072 16.6807 13.6663 16.0797 14.5675C15.4787 15.4686 14.6239 16.1713 13.6236 16.5866C12.6232 17.002 11.5221 17.1114 10.4596 16.901C9.39706 16.6906 8.42078 16.1698 7.65422 15.4045C6.88766 14.6393 6.36523 13.6639 6.15302 12.6017C5.9408 11.5395 6.04832 10.4383 6.46198 9.43721C6.87564 8.43614 7.57686 7.58022 8.47697 6.97768C9.37708 6.37514 10.4357 6.05304 11.5188 6.05212C12.9706 6.05317 14.3628 6.62972 15.3902 7.65542C16.4176 8.68111 16.9965 10.0723 17.0001 11.5241ZM12.0213 13.9344L12.1933 13.8521C12.3872 13.7562 12.5578 13.6189 12.693 13.4499C12.8282 13.281 12.9247 13.0844 12.9758 12.8742C13.0269 12.6639 13.0312 12.445 12.9886 12.2328C12.9459 12.0207 12.8573 11.8204 12.729 11.6462C12.4303 11.2413 12.0207 11.0455 11.5195 11.0295C11.3935 11.0281 11.2728 10.9789 11.1816 10.8919C11.0904 10.8049 11.0356 10.6866 11.0282 10.5609C11.0211 10.438 11.0599 10.3168 11.1371 10.2209C11.2143 10.125 11.3243 10.0612 11.4459 10.0418C11.5675 10.0225 11.6919 10.049 11.795 10.1162C11.8982 10.1834 11.9727 10.2865 12.0041 10.4055C12.0167 10.446 12.0266 10.4872 12.0373 10.525H13.0111C13.0145 10.4744 13.0145 10.4236 13.0111 10.373C12.9348 9.83595 12.6619 9.43433 12.1707 9.20067C12.1203 9.18361 12.0776 9.14924 12.0501 9.10367C12.0226 9.05809 12.0122 9.00426 12.0207 8.95173C12.0293 8.65433 12.0207 8.35429 12.0207 8.05424H11.0249V9.123C10.9619 9.15287 10.9074 9.1781 10.853 9.20531C10.5163 9.37037 10.2553 9.65773 10.1233 10.0087C9.99124 10.3597 9.9982 10.7479 10.1427 11.0939C10.4003 11.6953 10.8729 11.9994 11.5294 12.0279C11.6554 12.0295 11.776 12.0788 11.8672 12.1657C11.9583 12.2526 12.0131 12.3709 12.0207 12.4966C12.0258 12.6194 11.9861 12.74 11.9091 12.8358C11.8321 12.9316 11.7229 12.9963 11.6018 13.0177C11.4803 13.0357 11.3565 13.0085 11.2538 12.9412C11.1511 12.8739 11.0767 12.7712 11.0448 12.6526C11.0322 12.6121 11.0216 12.5716 11.011 12.5331H10.0431C10.0382 12.5505 10.0349 12.5682 10.0332 12.5862C10.0324 12.6195 10.0339 12.6527 10.0378 12.6858C10.1148 13.2221 10.3883 13.6238 10.8795 13.8574C10.9299 13.8746 10.9725 13.9092 10.9998 13.9549C11.027 14.0006 11.0371 14.0545 11.0282 14.107C11.0203 14.4038 11.0282 14.7045 11.0282 15.0039H12.024L12.0213 13.9344Z" fill="white"/>
<path id="Vector_2" d="M5.45666 6.05477C4.26907 6.03817 3.02041 5.85163 1.84809 5.29667C1.37187 5.08455 0.941808 4.78123 0.582165 4.40382C-0.187877 3.56341 -0.187213 2.54975 0.582165 1.71001C1.13182 1.11256 1.82552 0.736168 2.58427 0.489223C4.63883 -0.179253 6.69205 -0.174605 8.72668 0.576849C9.38122 0.818483 9.97336 1.1743 10.4473 1.69739C11.2346 2.57166 11.2154 3.62648 10.3956 4.47286C9.84657 5.03977 9.1595 5.37434 8.42332 5.6193C7.49329 5.92997 6.53074 6.0488 5.45666 6.05477Z" fill="white"/>
<path id="Vector_3" d="M0.00585938 5.2522C1.1815 6.29507 2.5689 6.74316 4.05522 6.94297C4.52611 7.00414 5.00031 7.03651 5.47515 7.03989C5.94912 7.04586 6.4231 7.00338 6.90703 6.98214C6.88655 7.01256 6.86439 7.04182 6.84064 7.06976C6.33071 7.60078 5.91817 8.21736 5.62185 8.89131C5.60778 8.94012 5.57647 8.98216 5.53374 9.00963C5.49101 9.0371 5.43976 9.04813 5.38951 9.04067C4.10036 9.00615 2.85169 8.79505 1.68999 8.20424C1.17752 7.94336 0.718811 7.61078 0.378267 7.13681C0.131463 6.80655 0.000768753 6.40396 0.00652385 5.9917C0.00851534 5.75604 0.00585938 5.51773 0.00585938 5.2522Z" fill="white"/>
<path id="Vector_4" d="M6.05346 14.9813C5.59276 14.9813 5.15596 15.0065 4.7258 14.976C3.66368 14.9023 2.64005 14.6686 1.68745 14.1794C1.18162 13.9185 0.725568 13.5913 0.386352 13.1233C0.134272 12.79 0.000849192 12.382 0.00730372 11.9642C0.0119505 11.7285 0.00730372 11.4929 0.00730372 11.2493C0.268189 11.4418 0.50584 11.6383 0.763406 11.8029C1.71135 12.4076 2.76419 12.7243 3.86614 12.8856C4.26444 12.9447 4.66805 12.9686 5.06966 12.9998C5.18318 13.0084 5.24226 13.0363 5.2728 13.1598C5.42392 13.7661 5.66752 14.3456 5.99504 14.8778C6.01363 14.9036 6.02624 14.9329 6.05346 14.9813Z" fill="white"/>
<path id="Vector_5" d="M5.08028 12.0293C4.56714 11.9583 4.08454 11.9118 3.60857 11.8229C2.7456 11.6602 1.91979 11.3814 1.18626 10.8822C0.664493 10.5264 0.205787 10.0996 0.0703657 9.45631C-0.0099576 9.07262 0.00796595 8.669 0 8.26672C1.51154 9.54924 3.3145 9.9263 5.22832 10.0305C5.09223 10.6784 5.0066 11.321 5.08028 12.0293Z" fill="white"/>
</g>
<defs>
<clipPath id="clip0_1_1258">
<rect width="17" height="17.006" fill="white"/>
</clipPath>
</defs>
</svg>
