<svg width="17" height="18" viewBox="0 0 17 18" fill="none" xmlns="http://www.w3.org/2000/svg">
<g id="Frame" clip-path="url(#clip0_1_1196)">
<path id="Vector" d="M8.90539 10.3043L5.42338 13.7842C5.80627 14.1651 6.19934 14.5561 6.59106 14.9472C6.93661 15.2927 6.93594 15.5582 6.59106 15.9024C6.17513 16.3187 5.75897 16.7344 5.34259 17.1495C5.03505 17.4556 4.75467 17.4543 4.44917 17.1495L3.23465 15.9349L2.38196 16.7944C2.21496 16.9635 2.01944 17.0544 1.7859 16.9655C1.68778 16.9234 1.59912 16.862 1.52521 16.7849C1.09344 16.3606 0.667096 15.9309 0.239398 15.5025C-0.0756057 15.1868 -0.0776415 14.9085 0.236004 14.5948L3.44103 11.3932C4.4933 10.3414 5.54625 9.29068 6.59989 8.24112C6.69086 8.15083 6.70647 8.08837 6.64605 7.96956C5.4804 5.66542 6.04184 2.89964 8.0337 1.26013C9.31747 0.203778 10.8049 -0.185225 12.4465 0.0822568C13.5411 0.266772 14.5536 0.78023 15.3493 1.55432C16.145 2.32841 16.6861 3.32642 16.9006 4.41559C17.401 6.96617 16.0466 9.54186 13.6542 10.5256C12.0968 11.1678 10.5463 11.1108 9.0303 10.3586C8.98278 10.3389 8.93661 10.3192 8.90539 10.3043ZM11.513 8.1997C12.2338 8.20258 12.9263 7.919 13.438 7.41133C13.9498 6.90365 14.2389 6.21348 14.2418 5.49264C14.2447 4.7718 13.9611 4.07935 13.4534 3.5676C12.9457 3.05586 12.2556 2.76674 11.5347 2.76386C10.0602 2.73806 8.81917 3.95734 8.80423 5.45428C8.80065 5.8126 8.86802 6.16809 9.00245 6.50025C9.13689 6.83241 9.33574 7.13468 9.58754 7.38964C9.83934 7.64459 10.1391 7.84719 10.4696 7.98576C10.8 8.12432 11.1547 8.19611 11.513 8.19699V8.1997Z" fill="white" fill-opacity="0.7"/>
</g>
<defs>
<clipPath id="clip0_1_1196">
<rect width="17" height="17.3781" fill="white"/>
</clipPath>
</defs>
</svg>
