<svg width="17" height="19" viewBox="0 0 17 19" fill="none" xmlns="http://www.w3.org/2000/svg">
<g id="Frame" clip-path="url(#clip0_1_1177)">
<path id="Vector" d="M0 18.8916V17.02H1.87312V0H15.1143V17.0081H16.997V18.8916H0ZM6.65015 16.9993H10.3853C10.3853 16.3468 10.3934 15.7077 10.3853 15.0685C10.3725 14.6029 10.1881 14.1584 9.86765 13.8203C9.54718 13.4823 9.11317 13.2745 8.64889 13.2368C7.70752 13.1577 6.77429 13.8197 6.66567 14.7582C6.58069 15.4919 6.64867 16.2426 6.64867 16.9993H6.65015ZM7.56787 9.45356V11.3171H9.43952V9.45356H7.56787ZM7.56787 1.88347V3.74995H9.43508V1.88347H7.56787ZM7.56787 5.6711V7.54201H9.43508V5.6711H7.56787ZM3.78541 1.87978V3.74995H5.64598V1.87978H3.78541ZM13.2205 3.7566V1.88643H11.3555V3.7566H13.2205ZM3.78837 5.6711V7.54275H5.64745V5.6711H3.78837ZM13.2205 5.67775H11.3577V7.54422H13.2205V5.67775ZM3.78467 9.45356V11.3171H5.65115V9.45356H3.78467ZM11.3562 9.45356V11.3237H13.2198V9.45208L11.3562 9.45356Z" fill="white" fill-opacity="0.7"/>
</g>
<defs>
<clipPath id="clip0_1_1177">
<rect width="17" height="18.8916" fill="white"/>
</clipPath>
</defs>
</svg>
