<svg width="13" height="17" viewBox="0 0 13 17" fill="none" xmlns="http://www.w3.org/2000/svg">
<g id="Frame" clip-path="url(#clip0_1_1215)">
<path id="Vector" d="M0.000244141 16.8924V0.00158691H11.1865C12.2553 0.00158691 12.9983 0.745179 12.9989 1.81801C12.9989 6.23734 12.9989 10.658 12.9989 15.08C12.9989 16.1521 12.2547 16.8957 11.1851 16.8957C7.51358 16.8957 3.84071 16.8957 0.166513 16.8957L0.000244141 16.8924ZM6.49068 10.6402C7.30772 10.6424 8.10706 10.4022 8.78759 9.95009C9.46812 9.49794 9.99926 8.85411 10.3138 8.10005C10.6284 7.34599 10.7123 6.51558 10.5548 5.71385C10.3973 4.91213 10.0056 4.17511 9.42923 3.59604C8.85284 3.01696 8.11765 2.62185 7.31666 2.46068C6.51567 2.2995 5.68488 2.37951 4.92937 2.69058C4.17386 3.00164 3.52758 3.5298 3.07228 4.20823C2.61698 4.88665 2.37313 5.68488 2.37156 6.50192C2.36928 7.59683 2.80192 8.64784 3.57434 9.42385C4.34677 10.1999 5.39576 10.6374 6.49068 10.6402ZM3.02476 12.7317H9.95924V11.7631H3.02476V12.7317ZM9.03882 14.6953V13.7254H3.95507V14.6933L9.03882 14.6953Z" fill="white" fill-opacity="0.7"/>
<path id="Vector_2" d="M5.56567 7.01233H7.41311C7.34713 7.81464 7.24222 8.59584 6.84568 9.30315C6.82657 9.33638 6.80564 9.36854 6.783 9.39948C6.55735 9.72212 6.41879 9.7241 6.19776 9.39288C5.88897 8.93102 5.76097 8.40318 5.66992 7.86413C5.62703 7.58899 5.6046 7.3099 5.56567 7.01233Z" fill="white" fill-opacity="0.7"/>
<path id="Vector_3" d="M7.41579 6.0068H5.56836C5.60267 5.72374 5.62906 5.44794 5.67129 5.17545C5.74387 4.70699 5.85801 4.25173 6.083 3.8288C6.16241 3.6916 6.25571 3.56292 6.36144 3.4448C6.37598 3.42233 6.39591 3.40386 6.41942 3.39107C6.44293 3.37828 6.46927 3.37158 6.49604 3.37158C6.5228 3.37158 6.54914 3.37828 6.57265 3.39107C6.59616 3.40386 6.61609 3.42233 6.63063 3.4448C6.73124 3.55319 6.81973 3.67221 6.89455 3.79977C7.25414 4.48398 7.35443 5.23087 7.41579 6.0068Z" fill="white" fill-opacity="0.7"/>
<path id="Vector_4" d="M3.39233 7.01172H4.56743C4.6189 7.40034 4.65189 7.78368 4.72447 8.15911C4.79704 8.53453 4.90525 8.88884 5.00356 9.27549C4.11679 8.7615 3.58368 8.01989 3.39233 7.01172Z" fill="white" fill-opacity="0.7"/>
<path id="Vector_5" d="M7.9917 9.26087C8.08737 8.88149 8.1969 8.51398 8.26882 8.13922C8.34073 7.76445 8.3724 7.39167 8.42321 7.00964H9.57126C9.60886 7.72223 8.79731 8.87951 7.9917 9.26087Z" fill="white" fill-opacity="0.7"/>
<path id="Vector_6" d="M9.58391 6.00155H8.40749C8.35405 5.24014 8.2432 4.49457 7.9707 3.77539C8.61335 3.90141 9.49748 5.12138 9.58391 6.00155Z" fill="white" fill-opacity="0.7"/>
<path id="Vector_7" d="M4.58442 6.00146H3.39282C3.58548 4.99791 4.1186 4.2563 5.00273 3.76343C4.76282 4.48711 4.6221 5.23998 4.58442 6.00146Z" fill="white" fill-opacity="0.7"/>
</g>
<defs>
<clipPath id="clip0_1_1215">
<rect width="13" height="16.8921" fill="white" transform="translate(0.000244141)"/>
</clipPath>
</defs>
</svg>
