<svg width="11" height="15" viewBox="0 0 11 15" fill="none" xmlns="http://www.w3.org/2000/svg">
<g id="Frame" clip-path="url(#clip0_1_1239)">
<path id="Vector" d="M1.22545 1.22414C1.00549 1.22414 0.805571 1.23102 0.605654 1.22414C0.4547 1.22268 0.309637 1.16536 0.198462 1.06323C0.0872878 0.961106 0.0178842 0.821419 0.00364555 0.67113C-0.0105931 0.520841 0.0313419 0.370607 0.121359 0.24942C0.211377 0.128233 0.343094 0.0446851 0.491089 0.0149032C0.542631 0.00523728 0.595047 0.00101329 0.647471 0.00230092C3.8828 0.00230092 7.11851 0.00230092 10.3546 0.00230092C10.6616 0.00230092 10.8931 0.167276 10.9738 0.436505C11.0158 0.562276 11.0135 0.698611 10.9673 0.822905C10.9212 0.947198 10.8339 1.05198 10.7201 1.11989C10.6023 1.18002 10.4734 1.21513 10.3414 1.223C10.1621 1.23961 9.97997 1.22701 9.77719 1.22701V1.38969C9.77719 1.98619 9.77719 2.5827 9.77719 3.1792C9.77719 4.25669 9.36991 5.15374 8.57425 5.87607C8.25614 6.16401 7.93689 6.45043 7.61649 6.73531C7.23498 7.07901 7.23097 7.5808 7.60904 7.92335C7.96992 8.25044 8.34054 8.56721 8.69111 8.90461C9.38652 9.57367 9.7537 10.394 9.77318 11.3638C9.78636 11.9984 9.77719 12.6331 9.77776 13.2678V13.4397C9.98742 13.4397 10.1822 13.4351 10.3764 13.4397C10.8111 13.4517 11.0964 13.8338 10.9733 14.2336C10.937 14.3506 10.8664 14.4541 10.7705 14.5304C10.6747 14.6067 10.5581 14.6524 10.4359 14.6615C10.4027 14.6644 10.3695 14.6615 10.3357 14.6615H0.669239C0.362204 14.6615 0.143383 14.5246 0.0442843 14.2743C-0.115534 13.8693 0.172598 13.4517 0.625132 13.438C0.81932 13.4322 1.01408 13.438 1.22545 13.438V13.2661C1.22545 12.6696 1.22545 12.0731 1.22545 11.4766C1.22545 10.3985 1.63617 9.50321 2.43412 8.78432C2.74612 8.50287 3.0585 8.22218 3.37126 7.94226C3.77797 7.5768 3.77683 7.08302 3.3684 6.71412C3.01382 6.39448 2.65122 6.08401 2.30752 5.75234C1.62013 5.09015 1.25352 4.27617 1.23061 3.32012C1.21514 2.68542 1.22603 2.05073 1.22545 1.41604V1.22414ZM7.93383 13.4334C7.93727 13.4013 7.94185 13.3761 7.94185 13.3555C7.94185 12.7065 7.94529 12.0574 7.93555 11.4079C7.93507 11.0348 7.78989 10.6765 7.53056 10.4083C6.96747 9.82457 6.39121 9.25289 5.81208 8.68292C5.7712 8.64048 5.72211 8.60678 5.6678 8.58389C5.61349 8.561 5.5551 8.54939 5.49617 8.54977C5.43723 8.55014 5.37899 8.56249 5.32498 8.58607C5.27096 8.60965 5.22231 8.64397 5.18197 8.68693C4.61258 9.25174 4.04376 9.81655 3.48526 10.3922C3.21463 10.6692 3.06346 11.0413 3.06423 11.4285C3.05678 12.0729 3.06079 12.7173 3.06022 13.3618C3.06236 13.3857 3.06638 13.4095 3.07225 13.4328L7.93383 13.4334Z" fill="white"/>
</g>
<defs>
<clipPath id="clip0_1_1239">
<rect width="11" height="14.6649" fill="white" transform="translate(0.000244141)"/>
</clipPath>
</defs>
</svg>
