<svg width="37" height="37" viewBox="0 0 37 37" fill="none" xmlns="http://www.w3.org/2000/svg">
<circle cx="18.5" cy="18.5" r="18.5" fill="#47C53A"/>
<g clip-path="url(#clip0_1_697)">
<path d="M18.4255 26.8386C17.0294 26.8417 15.6523 26.5154 14.4061 25.8861C14.3432 25.8511 14.2735 25.8303 14.2018 25.8249C14.1301 25.8196 14.0581 25.83 13.9908 25.8552C12.5423 26.3209 11.092 26.7825 9.64011 27.2402C9.51654 27.2797 9.39296 27.3329 9.27797 27.2196C9.16299 27.1063 9.21619 26.9828 9.25738 26.8592C9.72992 25.4691 10.203 24.0789 10.6767 22.6888C10.7026 22.6247 10.7131 22.5555 10.7074 22.4867C10.7018 22.4178 10.6801 22.3513 10.6441 22.2923C9.84974 20.9182 9.4656 19.3453 9.53713 17.7597C9.68644 14.5641 11.159 12.1236 13.8758 10.452C15.3636 9.54375 17.0939 9.11253 18.834 9.21633C20.6157 9.29928 22.3312 9.91658 23.7573 10.9879C25.1834 12.0592 26.254 13.535 26.8299 15.2231C27.4497 17.0657 27.4409 19.0617 26.8049 20.8987C26.1688 22.7357 24.9415 24.3099 23.315 25.3747C21.8625 26.3282 20.1631 26.837 18.4255 26.8386ZM11.9896 24.5577L12.1698 24.508C12.8409 24.2951 13.5154 24.0858 14.1847 23.8644C14.2632 23.8335 14.348 23.8223 14.4318 23.8319C14.5156 23.8415 14.5958 23.8715 14.6652 23.9193C15.5359 24.4753 16.521 24.8273 17.5468 24.949C18.8033 25.1041 20.0784 24.9178 21.238 24.4099C22.3977 23.9019 23.3991 23.091 24.1371 22.0623C24.947 20.9421 25.4008 19.6039 25.4394 18.2221C25.478 16.8403 25.0995 15.4789 24.3534 14.3153C23.429 12.8346 21.9792 11.7581 20.2945 11.3016C19.0077 10.9316 17.6407 10.9471 16.3626 11.3462C15.1155 11.716 13.9978 12.4298 13.1378 13.4057C12.098 14.5648 11.4812 16.0418 11.3877 17.5962C11.2942 19.1505 11.7296 20.6908 12.6229 21.9662C12.6793 22.0381 12.7155 22.1237 12.7278 22.2141C12.7402 22.3046 12.7283 22.3967 12.6933 22.4811C12.4582 23.1642 12.2316 23.8438 11.9896 24.5577Z" fill="white"/>
<path d="M20.8262 22.2601C20.3233 22.2351 19.8267 22.1375 19.3519 21.9701C17.3868 21.3797 15.9967 20.0668 14.8554 18.4295C14.4555 17.8545 14.1071 17.2573 13.9973 16.5553C13.8717 15.8766 14.0118 15.1755 14.3886 14.5971C14.4791 14.448 14.5995 14.3192 14.7421 14.2188C14.8848 14.1184 15.0466 14.0485 15.2175 14.0136C15.4424 13.9707 15.6672 13.9261 15.8937 13.8952C16.0168 13.8695 16.1449 13.8875 16.2561 13.9461C16.3673 14.0047 16.4546 14.1001 16.503 14.2161C16.7776 14.8271 17.0367 15.4449 17.2907 16.0645C17.3989 16.3305 17.2581 16.5605 17.1191 16.7699C16.9921 16.9518 16.8325 17.1131 16.6969 17.2847C16.6643 17.3294 16.6403 17.4255 16.6643 17.4564C17.3748 18.4689 18.2329 19.3133 19.388 19.8179C19.412 19.8334 19.439 19.8438 19.4672 19.8484C19.4955 19.853 19.5243 19.8517 19.5521 19.8446C19.5798 19.8375 19.6057 19.8248 19.6283 19.8072C19.6509 19.7896 19.6695 19.7675 19.6832 19.7424C19.8668 19.5004 20.0659 19.267 20.2581 19.0284C20.4503 18.7899 20.6477 18.7126 20.9566 18.8311C21.1814 18.9152 21.3994 19.0216 21.6156 19.1245C21.9984 19.3065 22.3759 19.4953 22.7569 19.6806C22.8428 19.7197 22.9153 19.7831 22.9653 19.8631C23.0154 19.943 23.0408 20.036 23.0384 20.1303C23.1036 21.4569 22.043 22.1348 21.0836 22.2361C21.0047 22.2532 20.9274 22.2549 20.8262 22.2601Z" fill="white"/>
</g>
<defs>
<clipPath id="clip0_1_697">
<rect width="18.0839" height="18.0822" fill="white" transform="translate(9.20728 9.20752)"/>
</clipPath>
</defs>
</svg>
