<svg width="25" height="25" viewBox="0 0 25 25" fill="none" xmlns="http://www.w3.org/2000/svg">
<g id="Group 3612">
<g id="Group 3595">
<circle id="Ellipse 5" cx="12.0556" cy="12.0556" r="11.7056" stroke="#212225" stroke-width="0.7"/>
</g>
<path id="Vector" d="M12.4264 17C11.0451 16.9005 9.61014 16.8096 8.17438 16.6872C7.6559 16.6338 7.16951 16.4 6.79305 16.0232C6.49144 15.7335 6.29602 15.3426 6.24052 14.9181C5.90823 12.911 5.92034 10.8579 6.27627 8.85524C6.35753 8.38684 6.62079 8.0468 6.96856 7.76967C7.37851 7.45124 7.86603 7.26031 8.37507 7.21881C10.8951 6.94654 13.4344 6.92832 15.9577 7.1644C16.415 7.20471 16.869 7.27857 17.3163 7.38543C17.7226 7.48659 18.0606 7.74417 18.3483 8.0655C18.6359 8.38684 18.722 8.79064 18.7862 9.20803C19.0989 11.1831 19.0684 13.201 18.696 15.1646C18.644 15.4375 18.4653 15.7104 18.2808 15.9238C17.8445 16.4296 17.2619 16.6676 16.6224 16.7152C15.2492 16.824 13.8711 16.9048 12.4264 17ZM10.9549 14.5721L15.0038 11.9708L10.9549 9.3687V14.5721Z" fill="#212225"/>
</g>
</svg>
